<svg width="404" height="404" viewBox="0 0 404 404" fill="none" xmlns="http://www.w3.org/2000/svg">
<rect width="404" height="404" rx="60" fill="#F2F2F2"/>
<g clip-path="url(#clip0_1272_190)">
<path d="M200.692 232.076H152.046L142.108 262.807C141.846 263.984 140.8 264.769 139.623 264.638H115.038C113.6 264.638 113.208 263.853 113.6 262.284L155.708 141.061C156.1 139.753 156.492 138.315 157.015 136.746C157.538 134 157.8 131.123 157.8 128.246C157.669 127.592 158.192 126.938 158.846 126.807H159.238H192.715C193.762 126.807 194.285 127.2 194.415 127.853L242.146 262.546C242.538 263.984 242.146 264.638 240.838 264.638H213.508C212.592 264.769 211.677 264.115 211.415 263.2L200.692 232.076V232.076ZM159.631 205.53H192.846C192.062 202.784 191.015 199.515 189.838 196.115C188.662 192.584 187.485 188.792 186.308 184.869C185 180.815 183.823 176.892 182.515 172.838C181.208 168.784 180.031 164.992 178.985 161.2C177.938 157.538 177.023 154.138 176.108 151H175.846C174.669 156.623 173.231 162.246 171.4 167.869C169.438 174.146 167.477 180.684 165.385 187.223C163.554 193.892 161.592 200.038 159.631 205.53V205.53Z" fill="#FF9A00"/>
<path d="M271.307 149.692C266.992 149.823 262.807 148.123 259.669 145.115C256.661 141.846 255.092 137.531 255.222 133.085C255.092 128.638 256.792 124.454 259.93 121.446C263.069 118.438 267.253 116.869 271.569 116.869C276.669 116.869 280.592 118.438 283.469 121.446C286.345 124.585 287.915 128.769 287.784 133.085C287.915 137.531 286.345 141.846 283.207 145.115C280.199 148.254 275.753 149.954 271.307 149.692ZM256.661 263.2V162.508C256.661 161.2 257.184 160.677 258.361 160.677H284.253C285.43 160.677 285.953 161.331 285.953 162.508V263.2C285.953 264.638 285.43 265.292 284.253 265.292H258.622C257.315 265.292 256.661 264.508 256.661 263.2V263.2Z" fill="#FF9A00"/>
</g>
<defs>
<clipPath id="clip0_1272_190">
<rect x="49" y="49" width="306" height="306" rx="100" fill="white"/>
</clipPath>
</defs>
</svg>
