<svg width="404" height="404" viewBox="0 0 404 404" fill="none" xmlns="http://www.w3.org/2000/svg">
<g clip-path="url(#clip0_512_161)">
<rect width="404" height="404" fill="white"/>
<g clip-path="url(#clip1_512_161)">
<rect width="404" height="404" fill="white"/>
<path d="M192.137 12.4277C184.799 13.3351 177.5 15.4656 169.254 19.0953C158.01 24.1058 147.436 32.6277 139.783 42.8855C135.798 48.1722 134.338 50.9339 131.458 58.5878C129.012 65.0581 128.538 66.6757 127.079 74.014C125.066 84.0351 123.291 106.523 123.567 118.833L123.686 125.343L122.108 125.777C118.557 126.723 116.268 129.485 114.966 134.535C113.98 138.323 113.941 150.08 114.927 154.577C115.913 158.957 117.649 164.007 119.188 166.926C120.845 170.003 125.224 174.738 127.513 175.882C130.116 177.144 133.667 177.105 135.245 175.764C136.705 174.541 136.902 174.541 136.902 175.764C136.902 176.316 137.376 178.683 137.928 181.011C138.481 183.339 139.27 187.087 139.664 189.375C140.098 191.663 140.769 194.504 141.203 195.766C142.071 198.291 144.477 203.184 145.622 204.801C146.016 205.393 146.371 206.024 146.371 206.182C146.371 206.34 146.647 206.813 147.042 207.208C147.949 208.194 149.409 220.109 150.04 231.471L150.238 234.707L148.62 235.496C146.371 236.6 142.781 239.638 140.927 242.045C138.599 245.043 137.336 247.608 134.969 254.078C134.377 255.696 133.036 259.049 131.971 261.535L130.077 266.032L122.344 269.78C113.783 273.962 92.5966 284.97 84.627 289.389C81.8259 290.927 77.7227 293.176 75.5528 294.32C61.1524 301.974 52.7095 306.787 46.1602 311.088C30.1423 321.543 27.8145 324.423 20.0817 343.794C16.6887 352.237 14.2426 362.614 12.8618 374.41C12.5067 377.33 12.0727 381.078 11.836 382.695C11.402 386.088 10.4157 396.425 10.1001 400.923C9.86335 403.96 9.9028 404 10.8102 404C11.7176 404 11.7176 403.921 11.9938 398.555C12.1516 395.596 12.4278 392.361 12.5462 391.414L12.8223 389.678L14.3216 391.888C16.018 394.373 20.2001 398.634 23.0012 400.765C24.3032 401.791 24.8555 402.461 24.895 403.211C24.895 404 24.9739 404.039 25.1712 403.487C25.4473 402.856 25.5262 402.856 26.2364 403.369C27.6173 404.434 28.288 404.039 26.9466 402.974C25.8024 402.067 25.6446 401.751 25.6446 400.015C25.6446 397.806 26.552 389.008 27.42 382.695C27.7356 380.407 28.288 376.343 28.643 373.621C28.9981 370.899 29.3532 368.61 29.4321 368.532C29.511 368.413 30.2606 368.65 31.0891 369.044C33.0223 369.991 40.2423 372.437 41.0708 372.437C41.7415 372.437 42.3727 373.424 42.0571 373.937C41.5837 374.765 40.2028 382.932 39.6899 388.021C39.0192 394.61 38.9009 397.845 39.0587 401.633C39.1376 403.329 39.2954 402.264 39.4532 398.437C39.9266 389.087 41.8598 374.805 42.6884 374.805C42.8462 374.805 43.004 375.12 43.004 375.515C43.004 377.369 47.1466 388.968 51.4864 399.226C53.1829 403.29 54.0509 404.513 54.7216 403.842C54.8794 403.724 53.9719 401.238 52.7489 398.398C50.3423 392.756 48.0934 386.917 48.2512 386.798C48.2907 386.759 49.6321 386.601 51.2102 386.483L54.0509 386.207L54.0903 388.495C54.0903 391.572 55.3923 403.526 55.7473 403.842C56.1813 404.276 56.063 401.435 55.4712 396.504C55.1555 394.018 54.8399 390.783 54.8005 389.323L54.7216 386.68L62.1782 386.483C66.2813 386.364 71.568 386.167 73.9352 386.009L78.2356 385.733L77.9989 389.244C77.3282 398.319 77.2098 404 77.6833 404C77.9595 404 78.1173 403.053 78.1173 401.317C78.1173 398.792 78.8669 386.128 79.0247 386.009C79.0641 385.97 81.4313 385.733 84.2325 385.496C87.0731 385.26 89.7559 384.944 90.2294 384.826L91.1368 384.589L90.9395 394.373C90.7423 405.302 91.2552 403.684 91.6891 391.967C91.847 388.061 92.0837 384.747 92.2415 384.628C92.3993 384.51 96.2657 383.918 100.803 383.326C105.379 382.735 110.587 382.025 112.441 381.709C114.296 381.433 117.452 381.157 119.504 381.078L123.212 380.92V387.745C123.173 391.493 123.054 396.701 122.897 399.266C122.699 402.225 122.739 404 122.975 404C123.528 404 123.883 398.042 123.883 388.81V380.841L127.749 380.604C129.84 380.446 132.168 380.328 132.918 380.328H134.259L134.022 387.745C133.865 391.809 133.628 397.135 133.47 399.542C133.312 402.422 133.352 404 133.628 404C133.865 404 134.141 401.199 134.338 397.017C134.496 393.15 134.733 387.785 134.89 385.062L135.127 380.131L138.678 379.894C140.65 379.736 148.265 379.5 155.682 379.342L169.136 379.066L169.412 382.774C169.53 384.786 169.491 390.349 169.293 395.123C169.096 399.897 168.978 403.882 169.096 403.96C169.609 404.513 169.767 402.501 170.004 391.375L170.24 379.066L177.658 378.987L185.075 378.908L184.838 386.009C184.72 389.955 184.522 395.596 184.404 398.595C184.286 401.633 184.365 404 184.562 404C185.035 404 185.43 397.096 185.43 388.653C185.43 384.826 185.548 381.038 185.667 380.21L185.943 378.71L191.584 378.868C194.701 378.947 197.266 378.868 197.266 378.71C197.266 378.513 194.701 378.355 191.584 378.355H185.943L185.627 373.897C185.509 371.491 185.035 367.782 184.601 365.77C184.207 363.718 183.97 361.943 184.049 361.864C184.167 361.746 187.047 361.864 190.44 362.14C193.873 362.377 198.055 362.574 199.751 362.574C201.408 362.574 202.789 362.653 202.789 362.771C202.789 362.85 202.237 364.428 201.606 366.204C199.554 371.806 197.779 378.75 197.068 383.879C196.713 386.601 196.082 390.665 195.688 392.953C195.293 395.241 194.82 398.674 194.662 400.567C194.425 403.763 194.465 404 195.135 404C195.806 404 195.964 403.29 196.792 396.78C197.266 392.835 198.055 387.232 198.528 384.313L199.396 379.066L204.92 379.263C207.997 379.381 210.877 379.578 211.39 379.736C212.495 380.091 212.495 380.88 211.469 392.164C210.68 400.607 210.483 404.316 210.877 403.921C211.074 403.763 212.218 391.809 212.889 383.366L213.126 379.934H218.807C223.975 379.934 224.488 380.012 224.488 380.604C224.488 380.999 224.212 384.51 223.897 388.416C222.871 400.489 222.752 404 223.265 404C223.542 404 223.699 403.25 223.699 401.948C223.699 400.844 223.975 396.701 224.291 392.795C224.607 388.85 224.922 384.392 224.962 382.893L225.08 380.131L230.367 380.012L235.654 379.894L235.417 382.616C234.983 387.035 234.628 404.237 234.943 403.921C235.101 403.763 235.377 399.502 235.575 394.452C235.733 389.402 236.009 383.958 236.167 382.38L236.403 379.539H254.354H272.345L272.108 381.038C271.95 381.827 271.674 386.68 271.438 391.769C271.24 396.859 270.964 401.712 270.885 402.501C270.806 403.329 270.885 404 271.083 404C271.28 404 271.438 403.053 271.438 401.869C271.438 400.686 271.595 398.003 271.793 395.873C271.99 393.703 272.266 389.284 272.424 386.049C272.542 382.774 272.779 380.012 272.937 379.855C273.331 379.46 291.243 380.249 291.677 380.683C291.953 380.959 290.77 397.648 290.138 402.303C290.02 403.29 290.099 404 290.336 404C290.73 404 290.77 403.566 291.756 391.769C292.742 380.21 292.703 380.407 293.689 380.407C295.741 380.407 309.273 381.157 314.56 381.551L320.359 382.025L320.162 383.839C320.083 384.826 319.807 388.574 319.57 392.164C319.334 395.754 319.058 399.857 318.979 401.317C318.86 402.856 318.939 404 319.136 404C319.531 404 319.847 400.804 320.162 392.874C320.241 389.876 320.478 386.207 320.596 384.668L320.872 381.906L331.17 382.143C336.851 382.301 341.546 382.459 341.625 382.537C341.743 382.656 341.467 387.706 340.638 400.134C340.441 402.58 340.52 404 340.757 404C340.954 404 341.349 400.923 341.585 396.78C341.861 392.835 342.177 387.943 342.335 385.93L342.572 382.301H347.385C353.776 382.301 355.946 382.616 355.67 383.445C355.591 383.8 355.118 386.641 354.684 389.797C354.25 392.953 353.618 397.332 353.263 399.581C352.908 401.83 352.711 403.763 352.869 403.882C352.987 404 353.184 403.882 353.263 403.566C353.461 403.053 355.631 388.653 356.143 384.55L356.38 382.695H359.458C361.193 382.695 362.574 382.774 362.574 382.893C362.574 383.011 361.785 385.418 360.838 388.298C359.852 391.178 358.511 395.675 357.84 398.279C357.13 400.844 356.499 403.211 356.38 403.487C356.262 403.803 356.499 404 357.13 404C357.998 404 358.195 403.645 359.497 398.95C360.286 396.188 361.706 391.454 362.653 388.455L364.35 382.971L367.822 382.064C369.715 381.551 371.649 380.92 372.083 380.683C372.556 380.446 373.029 380.407 373.187 380.604C373.345 380.762 374.055 385.615 374.765 391.375C375.476 397.135 376.146 402.303 376.265 402.895C376.541 404.316 377.211 404.316 376.975 402.895C376.777 401.988 374.016 380.17 374.016 379.776C374.016 379.539 379.579 375.515 379.697 375.633C379.776 375.712 380.052 378.71 380.289 382.301C380.802 390.191 382.656 404 383.208 404C383.406 404 383.484 403.448 383.366 402.698C382.814 399.108 381.117 384.628 380.762 380.131L380.328 375.002L381.63 373.897C383.406 372.319 388.377 368.334 389.442 367.545C389.955 367.23 390.231 366.835 390.113 366.677C389.797 366.362 386.956 368.334 383.366 371.333C380.92 373.384 380.526 373.582 380.289 372.95C380.131 372.556 379.618 369.478 379.145 366.125C378.316 360.128 378.316 360.01 379.066 359.418C379.5 359.102 381.236 357.682 382.932 356.301C385.852 353.934 388.416 352.356 388.771 352.75C388.85 352.829 389.126 354.25 389.363 355.867C389.6 357.485 390.152 361.035 390.586 363.758C391.77 371.096 393.663 385.062 394.137 389.994C394.374 392.361 394.808 396.464 395.123 399.068C395.439 401.672 395.715 403.842 395.715 403.882C395.715 403.96 396.07 404 396.504 404C397.49 404 397.49 404.355 396.307 393.663C394.689 379.026 394.531 377.724 392.914 367.9C392.085 362.693 391.217 356.577 390.981 354.289C389.284 337.087 385.694 325.843 378.632 315.467C373.148 307.498 362.14 300.159 337.127 287.889C334.523 286.587 330.854 284.654 328.921 283.589C321.701 279.486 292.387 267.216 286.39 265.796L284.575 265.362L282.997 260.785C279.802 251.553 278.184 247.332 277.079 245.319C275.659 242.676 271.832 238.928 268.636 236.995C265.756 235.298 260.785 233.602 257.668 233.286L255.577 233.05L255.735 219.201L255.893 205.353L257.787 201.211C260.983 194.267 261.14 193.715 263.981 177.934C265.086 171.937 264.967 172.134 265.954 173.041C267.177 174.146 270.925 174.264 272.858 173.278C276.33 171.503 280.472 165.348 282.484 159.154C285.088 151.027 285.167 133.707 282.642 127.236C280.788 122.502 277.079 120.727 273.213 122.699C272.345 123.133 271.595 123.488 271.517 123.488C271.438 123.488 271.517 120.056 271.635 115.874C272.384 96.1867 267.887 71.5285 260.509 54.9187C258.615 50.6578 254.433 42.8855 252.382 39.8476C248.279 33.7718 241.532 27.1832 235.299 23.1589C229.815 19.6082 218.61 15.071 211.745 13.6113C208.313 12.8617 199.909 11.8359 197.858 11.8753C196.99 11.9148 194.425 12.1515 192.137 12.4277ZM203.381 14.4398C211.429 15.0316 218.768 16.9648 226.895 20.7128C234.273 24.0664 237.232 26.1574 243.268 32.1542C249.147 37.9933 250.488 39.7292 254.394 46.4757C261.811 59.2191 266.506 74.7242 269.307 95.871C270.017 101.316 270.491 125.5 269.859 124.08C269.662 123.646 269.504 122.502 269.504 121.516C269.465 120.529 269.11 117.886 268.676 115.637C268.242 113.388 267.611 109.048 267.256 105.971C266.9 102.894 266.545 100.329 266.427 100.211C266.033 99.8953 266.664 108.457 267.295 112.441C267.808 115.716 268.518 123.37 269.347 134.022C269.741 139.703 268.518 150.04 266.348 158.996C265.717 161.482 264.928 164.875 264.612 166.492C264.257 168.11 263.626 171.029 263.192 173.002C262.758 174.935 261.772 180.064 261.022 184.364C259.207 194.543 259.247 194.425 255.656 201.763C252.737 207.76 251.711 209.496 247.332 216.045C246.345 217.544 244.491 220.582 243.189 222.831C239.559 229.183 234.115 235.062 228.828 238.376C222.437 242.36 216.44 243.584 202.986 243.623C187.402 243.623 184.996 242.834 173.87 233.681C165.782 227.053 159.351 220.543 154.262 213.915C143.965 200.501 142.189 197.187 141.242 189.375C141.006 187.521 140.216 183.536 139.467 180.498C138.757 177.46 138.007 173.83 137.889 172.41C137.613 170.043 137.1 167.912 134.89 159.785C134.417 158.168 133.667 154.972 133.115 152.684C132.602 150.395 131.852 147.318 131.379 145.779C130.393 142.386 130.314 136.666 131.182 130.156C131.655 126.644 131.774 121.318 131.774 105.537C131.734 88.0593 131.852 84.4296 132.523 77.841C133.431 69.1613 133.983 66.4785 135.877 61.6257C138.678 54.3664 140.848 50.855 145.937 45.3316C150.316 40.5183 160.89 34.4031 169.254 31.7992C177.5 29.2347 180.38 28.8007 191.545 28.3273C207.602 27.6566 215.414 27.696 219.399 28.5246C228.828 30.4578 234.707 32.7855 241.65 37.4015C246.898 40.8734 249.147 43.2406 252.106 48.5273C259.996 62.5726 260.43 63.7562 262.718 80.2871C263.389 85.0609 264.297 90.1898 264.731 91.7285C265.717 95.3581 265.717 93.9378 264.731 88.7695C263.823 84.1535 262.955 77.841 262.561 73.3828C262.087 67.8988 260.272 60.8761 258.773 58.7062C258.339 58.1539 258.024 57.4437 258.024 57.1281C258.024 56.8519 257.353 55.471 256.564 54.0507C255.814 52.6304 254.118 49.5531 252.855 47.2253C250.093 42.0964 249.265 41.1101 245.793 38.3878C242.952 36.1785 236.167 32.0359 233.681 30.9312C227.566 28.2878 219.162 26.4335 212.258 26.1574C209.536 26.0785 201.29 26.2363 193.912 26.5519L180.498 27.1437L174.383 28.7218C166.926 30.655 163.967 31.7597 158.641 34.5609C152.289 37.9144 147.87 41.1496 144.28 45.0554C140.098 49.5531 137.77 53.1828 135.364 58.7851C132.997 64.2691 132.365 67.307 131.774 75.5527C131.537 79.0246 131.221 81.9835 131.103 82.1808C130.984 82.3781 130.906 90.2687 130.945 99.7374C130.984 109.443 130.787 120.766 130.511 125.658C129.683 139.585 129.84 143.767 131.34 148.896C132.01 151.263 132.563 153.709 132.563 154.341C132.563 155.011 133.352 158.759 134.299 162.705C135.956 169.569 136.863 175.132 136.192 174.067C135.916 173.673 135.6 173.752 134.733 174.462C133.352 175.527 130.629 175.606 128.538 174.619C124.159 172.528 119.188 164.756 116.979 156.629C114.927 149.093 115.4 135.798 117.847 131.339C119.188 128.814 121.595 126.644 122.936 126.644C124.356 126.644 126.211 127.868 127.828 129.84C128.578 130.787 129.249 131.3 129.327 131.063C129.643 130.116 127.789 127.078 126.408 126.289L125.066 125.5V118.478C125.066 108.141 126.29 88.5328 127.434 79.8925C128.104 75.1581 130.432 65.4132 132.05 60.955C134.456 54.0902 137.731 47.9749 141.44 43.2011C147.752 35.1527 152.526 30.8523 161.561 25.0921C171.858 18.5035 188.073 13.5718 197.858 14.0847C199.159 14.1242 201.645 14.282 203.381 14.4398ZM278.145 124.119C280.078 125.264 281.104 127.434 282.09 132.365C282.879 136.508 282.958 137.691 282.761 143.57C282.445 152.486 281.143 159.469 279.092 163.257C275.541 169.727 272.779 172.41 269.702 172.41C267.887 172.41 265.52 171.345 265.52 170.556C265.52 169.846 266.506 164.559 267.532 159.588C267.926 157.615 268.439 154.696 268.676 153.078C268.873 151.46 269.228 148.659 269.465 146.844C269.702 145.069 270.057 139.822 270.254 135.245C270.609 126.013 270.727 125.54 273.45 124.198C275.146 123.33 276.724 123.291 278.145 124.119ZM253.96 215.493C253.763 222.713 254.473 235.969 255.459 245.201C256.445 254.157 257.234 264.257 257.234 268.557C257.234 270.806 257.392 272.621 257.55 272.621C257.905 272.621 258.418 265.796 258.418 260.982V258.221L262.955 262.876C265.441 265.401 267.768 267.492 268.124 267.492C268.992 267.492 268.873 267.768 264.494 274.396C258.379 283.747 254.946 288.323 251.119 292.348C243.386 300.435 241.493 302.684 237.784 308.01C234.904 312.192 233.405 313.968 231.708 315.27C224.725 320.478 220.583 324.068 218.689 326.553C216.677 329.197 213.52 335.746 208.904 346.793C207.8 349.515 206.656 352.08 206.458 352.514C206.222 352.948 205.709 354.171 205.354 355.196C204.999 356.262 204.643 357.051 204.565 356.972C204.525 356.893 202.986 354.881 201.211 352.514C197.384 347.464 195.017 344.662 189.572 338.705C187.363 336.298 184.522 333.024 183.26 331.406C181.997 329.789 180.104 327.579 179.038 326.553L177.184 324.66L177.421 320.833C177.658 316.453 177.026 313.1 175.29 310.101C172.923 306.038 171.542 303.197 172.41 304.184C173.239 305.13 173.239 305.091 172.331 303.434C171.858 302.448 167.834 297.871 163.454 293.255L155.485 284.851L150.75 275.304L146.016 265.796L147.476 263.981C148.265 262.994 149.015 262.008 149.212 261.811C149.37 261.614 149.488 263.192 149.527 265.362C149.527 267.532 149.764 270.057 150.08 271.043L150.593 272.818L150.829 268.676C152.013 248.673 151.737 220.819 150.316 213.441C150.159 212.455 150.04 211.626 150.08 211.587C150.08 211.548 151.224 212.968 152.526 214.743C155.958 219.32 158.049 221.569 164.322 227.368C170.438 233.05 179.472 240.23 182.234 241.65C188.902 245.004 201.842 246.385 212.455 244.846C226.54 242.794 232.813 239.48 240.112 230.169C242.44 227.21 247.45 219.438 249.62 215.453C250.133 214.546 251.08 213.244 251.711 212.613C252.342 211.982 253.092 210.837 253.329 210.088C253.605 209.338 253.92 208.707 253.999 208.707C254.078 208.707 254.039 211.784 253.96 215.493ZM260.193 235.298C267.177 237.744 266.782 237.508 266.19 238.455C265.875 238.928 265.243 240.151 264.809 241.256L263.942 243.228L264.967 242.045C265.52 241.374 266.23 240.309 266.585 239.678C266.9 239.007 267.256 238.415 267.334 238.336C267.413 238.257 268.242 238.652 269.228 239.244C272.306 241.019 276.448 246.621 277.592 250.488C277.947 251.671 278.894 254.315 279.723 256.248C281.498 260.548 283.313 266.585 283.352 268.36C283.392 269.978 282.642 273.528 282.05 274.712C281.577 275.541 281.538 275.501 280.906 274.002C279.999 271.95 277.513 269.544 274.357 267.689L271.832 266.19L272.148 264.573C272.306 263.705 272.424 260.982 272.424 258.615C272.384 253.881 271.674 250.646 270.215 248.791C269.386 247.766 265.638 245.793 259.207 242.992C256.248 241.729 256.169 241.532 256.09 236.561C256.051 234.154 256.169 233.562 256.564 233.839C256.8 234.036 258.458 234.707 260.193 235.298ZM150.316 239.441C150.316 242.716 150.277 242.952 149.449 243.15C148.975 243.307 148.502 243.307 148.423 243.228C148.304 243.15 148.147 241.848 148.028 240.348C147.87 237.744 147.91 237.587 148.936 236.798C149.527 236.324 150.08 235.93 150.159 235.93C150.238 235.93 150.316 237.508 150.316 239.441ZM147.476 240.506C147.515 241.966 147.634 243.228 147.713 243.347C147.831 243.465 147.318 244.215 146.608 245.004C144.399 247.45 143.807 250.054 143.807 257.747V264.375L142.308 264.612C140.098 264.967 138.441 266.269 137.1 268.676L135.916 270.846L135.6 264.928C135.403 261.061 135.482 258.378 135.719 257.234C136.311 254.867 138.362 249.186 139.506 246.937C141.045 243.82 146.095 237.902 147.2 237.902C147.318 237.902 147.476 239.086 147.476 240.506ZM270.057 250.725C270.727 252.105 270.846 253.092 270.846 258.221C270.846 263.152 270.727 264.336 270.136 265.401C269.741 266.111 269.307 266.703 269.149 266.703C268.992 266.703 266.427 264.257 263.468 261.259L258.142 255.853L257.668 251.316C257.432 248.831 257.116 245.872 256.998 244.767L256.761 242.716L262.995 245.951C268.715 248.87 269.347 249.304 270.057 250.725ZM150.159 247.055C150.04 248.436 149.843 251.671 149.685 254.236C149.527 256.84 149.251 259.128 149.093 259.365C148.896 259.601 148.147 260.667 147.436 261.732C146.766 262.837 146.016 263.665 145.779 263.626C145.188 263.547 144.951 258.457 145.266 253.289C145.543 249.423 145.7 248.594 146.529 247.45C147.476 246.148 149.37 244.609 150.08 244.609C150.238 244.609 150.316 245.714 150.159 247.055ZM134.969 264.888C135.443 265.401 135.443 266.032 134.93 265.717C134.614 265.519 134.733 269.544 135.127 271.516C135.206 271.911 135.088 273.371 134.93 274.791C134.654 276.882 134.18 278.144 132.326 281.419L130.038 285.443L129.643 283.707C129.012 280.788 130.629 270.372 132.641 264.139L134.338 259.01L134.456 261.771C134.535 263.271 134.733 264.691 134.969 264.888ZM144.399 265.283C144.399 266.032 153.197 283.313 154.696 285.483C155.919 287.258 167.518 299.923 168.149 300.159C168.583 300.357 172.055 305.485 171.858 305.643C171.779 305.722 171.029 305.367 170.24 304.775C169.412 304.223 168.386 303.789 167.913 303.789C167.202 303.828 167.242 303.907 168.189 304.302C171.621 305.801 175.33 311.719 176.079 316.887C176.434 319.373 176.395 320.438 175.764 323.516C174.62 329.512 175.448 334.72 178.131 338.232C179.433 339.928 182.944 342.374 185.075 343.045C185.943 343.321 185.982 343.282 185.469 342.69C185.154 342.295 184.365 341.743 183.733 341.388C181.918 340.48 178.723 337.324 177.894 335.628C176.868 333.616 176.237 330.104 176.553 328.132C176.829 326.672 176.868 326.593 177.302 327.343C177.815 328.25 184.207 335.549 188.783 340.441C194.82 346.872 203.973 358.313 203.973 359.378C203.973 360.641 203.263 360.365 201.053 358.274C198.094 355.394 192.334 350.857 190.48 349.91C189.572 349.436 187.679 348.647 186.298 348.095C182.55 346.714 181.603 346.162 178.131 343.321C174.383 340.283 171.187 337.009 168.07 332.984C166.808 331.367 164.559 328.644 163.099 326.948C157.655 320.754 156.826 319.057 157.379 315.033C157.813 312.035 158.207 311.048 160.022 308.366C161.166 306.59 161.955 305.919 163.888 305.012C166.65 303.671 165.979 303.394 162.823 304.578C158.681 306.156 156.353 309.983 156.156 315.664C156.037 318.623 156.156 319.334 157.063 321.385C160.416 328.802 160.732 329.71 160.89 331.998C161.008 333.931 160.89 334.562 160.259 335.351C159.509 336.259 159.43 336.298 158.365 335.746C155.682 334.326 149.685 327.658 147.831 324.028C147.081 322.569 143.097 317.006 141.913 315.704L141.124 314.836L142.071 313.771L143.018 312.705L141.874 313.416C140.729 314.126 140.729 314.126 139.98 313.218C138.599 311.522 136.468 308.089 135.877 306.709C135.561 305.959 134.772 304.184 134.141 302.763C132.563 299.37 130.748 293.097 130.235 289.389L129.801 286.351L131.576 283.668C132.563 282.208 133.352 280.867 133.352 280.709C133.352 280.551 133.707 279.959 134.101 279.368C134.535 278.776 135.009 277.789 135.166 277.198C135.285 276.606 135.561 276.251 135.719 276.448C135.877 276.606 136.666 278.539 137.455 280.709C139.072 285.049 142.11 291.716 144.635 296.293C145.503 297.91 146.45 299.844 146.726 300.554C147.515 302.487 147.042 305.288 145.306 308.602C143.452 312.192 143.333 312.508 144.438 311.285C145.74 309.786 147.239 306.314 147.515 304.026L147.752 302.014L149.015 304.184C149.685 305.367 151.066 307.774 152.052 309.51C153.67 312.311 153.867 312.903 153.907 315.23L153.946 317.795L154.459 314.836C155.13 310.969 155.485 310.101 157.694 307.064C160.14 303.75 163.02 301.816 165.506 301.816C166.019 301.816 166.571 301.619 166.729 301.382C167.005 300.909 165.782 301.067 162.744 301.935C160.535 302.526 156.195 306.945 155.248 309.549C154.459 311.64 153.867 312.587 153.867 311.68C153.867 311.403 152.999 309.786 151.895 308.089C148.147 302.25 140.019 286.193 137.928 280.512C135.798 274.712 135.719 273.371 137.297 269.899C138.717 266.821 140.216 265.519 142.386 265.519C143.057 265.519 143.609 265.322 143.609 265.125C143.609 264.888 143.807 264.73 144.004 264.73C144.241 264.73 144.399 264.967 144.399 265.283ZM287.653 267.453C288.836 267.887 293.058 269.504 297.082 271.043C301.106 272.582 304.854 274.041 305.486 274.278C306.827 274.791 306.827 274.988 305.249 275.975C303.908 276.803 301.422 280.275 301.422 281.301C301.422 281.616 301.895 281.182 302.448 280.314C303.908 278.105 305.367 276.606 306.669 275.896C307.734 275.343 308.011 275.422 311.995 277.079C317.953 279.604 332.195 286.824 332.472 287.416C332.551 287.732 331.919 289.507 330.972 291.361C329.552 294.281 329.197 294.754 328.487 294.596C328.013 294.518 325.488 293.768 322.845 293.018C320.241 292.229 315.98 291.046 313.376 290.375C308.918 289.231 302.172 286.785 298.858 285.088C297.99 284.654 294.794 283.313 291.756 282.05L286.233 279.841L286.114 277.632L285.996 275.462L288.6 276.409C291.953 277.632 293.847 278.618 297.437 280.985C300.712 283.155 303.158 284.457 306.117 285.641C307.182 286.035 309.944 287.298 312.193 288.402C316.967 290.691 317.795 290.888 314.994 289.112C312.824 287.732 309.076 285.917 304.499 284.062C302.803 283.352 301.422 282.642 301.422 282.445C301.422 282.248 301.225 282.09 300.949 282.09C300.712 282.09 298.7 280.946 296.53 279.565C294.32 278.184 291.164 276.566 289.468 275.975C287.771 275.383 286.311 274.712 286.193 274.515C286.075 274.318 285.838 273.173 285.641 271.911C285.483 270.688 285.207 268.991 285.049 268.163C284.733 266.466 284.773 266.427 287.653 267.453ZM274.515 268.794C278.105 271.122 279.92 273.016 280.472 275.107C280.906 276.606 280.867 277.119 280.078 279.565C278.46 284.575 275.383 290.572 274.87 289.704C274.752 289.546 274.475 288.6 274.199 287.613C273.095 283.392 269.702 279.762 266.624 279.486L264.928 279.328L266.506 279.801C268.992 280.512 272.266 284.062 273.331 287.179C273.805 288.6 274.199 290.099 274.199 290.493C274.199 291.243 270.885 296.806 269.544 298.384C268.952 299.055 268.873 298.936 268.4 297.003C268.084 295.859 267.65 294.754 267.413 294.518C267.098 294.241 267.058 294.36 267.256 294.912C268.202 297.476 267.966 300.396 266.664 301.974C264.809 304.223 258.458 312.745 257.313 314.52C256.524 315.743 255.735 316.769 255.538 316.769C254.788 316.848 254.394 314.441 254.67 311.009C254.946 307.182 254.591 305.88 252.855 304.144C251.869 303.158 247.529 303.079 246.345 304.026C245.635 304.578 245.635 304.618 246.582 304.341C247.49 304.105 247.49 304.144 246.267 305.17C243.742 307.261 242.558 310.378 243.899 311.285C244.057 311.443 243.899 311.916 243.584 312.429C242.834 313.494 235.496 319.649 235.22 319.412C234.943 319.097 231.827 320.359 230.288 321.425C228.158 322.884 228.749 322.963 231.511 321.543C232.774 320.912 234.352 320.359 234.983 320.359C236.443 320.359 235.89 320.793 233.05 321.937C231.787 322.411 230.84 322.884 230.919 323.003C230.998 323.082 232.142 322.726 233.405 322.253C235.693 321.385 239.757 318.15 244.057 313.731C245.596 312.114 247.332 308.208 247.371 306.235C247.411 305.367 248.713 303.789 249.423 303.789C249.699 303.789 250.37 304.065 250.883 304.42C252.145 305.328 251.79 307.221 249.817 310.062C248.042 312.587 246.424 315.625 246.7 315.901C246.819 315.98 247.608 314.875 248.476 313.376C249.344 311.916 250.449 310.338 250.922 309.904C252.54 308.484 249.147 314.599 246.069 318.663C244.531 320.714 242.558 323.831 241.611 325.607L239.954 328.802L236.679 329.473C234.865 329.828 233.326 330.065 233.247 330.025C233.168 329.986 233.76 328.763 234.549 327.382C235.299 325.962 235.93 324.581 235.93 324.265C235.93 323.95 235.101 325.173 234.036 326.987L232.182 330.262L225.554 330.144C219.399 330.025 217.702 330.223 219.872 330.775C220.346 330.893 223.147 330.972 226.027 330.972C228.947 330.972 231.353 331.051 231.432 331.13C231.629 331.288 225.277 343.873 223.936 345.925C222.555 348.095 220.464 352.671 218.61 357.445L217.15 361.193L213.836 361.509C211.982 361.667 209.141 361.746 207.484 361.706L204.446 361.588L205.433 359.023C207.879 352.711 211.508 344.307 212.574 342.453C213.008 341.703 214.112 339.218 215.02 336.93C217.426 330.814 217.624 330.459 221.884 326.001C224.765 323.003 226.934 321.148 230.17 319.018C234.983 315.862 239.481 312.271 239.481 311.601C239.481 311.325 239.323 311.325 238.968 311.64C238.652 311.877 238.336 311.995 238.218 311.877C238.139 311.759 237.626 312.114 237.113 312.666C235.062 314.836 235.654 313.416 238.652 308.997C241.927 304.144 244.333 301.343 251.356 294.005L255.617 289.586H257.59C260.115 289.586 261.18 290.02 263.152 291.795C265.125 293.571 265.875 295.267 266.309 298.66L266.585 301.225L266.664 298.857C266.743 295.267 266.111 293.61 263.942 291.48C261.969 289.586 260.154 288.797 257.55 288.797H256.09L259.444 284.102C261.969 280.551 262.955 279.407 263.468 279.565C264.02 279.762 264.02 279.723 263.586 279.407C263.113 279.052 263.271 278.618 264.533 276.685C267.177 272.621 271.24 267.137 271.556 267.137C271.753 267.098 273.095 267.847 274.515 268.794ZM129.17 269.859C128.854 271.043 128.499 273.331 128.341 274.909L128.104 277.789L125.303 279.091C123.765 279.841 119.938 281.261 116.781 282.287C113.625 283.313 109.246 284.93 107.076 285.877C104.866 286.824 102.815 287.613 102.499 287.613C102.184 287.613 101.631 286.745 101.237 285.522C100.882 284.418 100.448 283.273 100.369 283.037C100.172 282.603 110.232 277.04 112.284 276.409C112.954 276.211 113.231 276.487 113.98 278.026C114.454 279.091 115.361 280.275 115.913 280.669C116.979 281.419 116.979 281.419 116.347 280.669C115.519 279.683 114.02 276.764 114.02 276.093C114.02 275.777 117.413 273.884 121.555 271.832C125.698 269.78 129.17 267.926 129.288 267.768C129.761 267.019 129.683 267.808 129.17 269.859ZM284.457 276.764C284.457 280.354 283.076 287.574 282.879 285.049C282.8 284.378 282.642 285.009 282.484 286.43C281.774 292.15 276.29 302.526 269.662 310.654C268.163 312.508 266.782 314.007 266.664 314.047C266.23 314.047 265.914 312.35 265.914 309.865C265.914 307.182 266.782 303.868 268.005 301.816C269.149 299.923 274.278 293.137 274.554 293.137C274.673 293.137 275.107 293.886 275.462 294.794C276.448 297.082 276.645 296.53 275.896 293.728L275.265 291.361L276.645 289.191C278.46 286.39 280.906 281.498 280.906 280.709C280.906 279.604 281.538 280.117 281.972 281.577C282.327 282.839 282.366 282.524 282.208 279.525C282.05 276.448 282.129 275.777 282.84 274.396C283.313 273.568 283.668 272.305 283.708 271.635L283.747 270.451L284.102 271.832C284.299 272.582 284.457 274.791 284.457 276.764ZM129.249 288.797C129.604 291.282 130.314 294.833 130.866 296.648C131.655 299.449 131.734 300.238 131.418 302.171C131.182 303.394 130.906 305.722 130.748 307.379L130.511 310.417L126.487 310.693C124.317 310.851 122.423 310.891 122.305 310.812C121.713 310.417 122.66 297.043 123.883 288.205C124.317 285.167 124.554 282.287 124.435 281.814C124.238 281.103 124.514 280.788 126.132 279.999L128.025 279.012L128.341 281.616C128.499 283.076 128.893 286.311 129.249 288.797ZM288.047 281.459C288.994 282.011 290.927 282.879 292.348 283.392C293.768 283.944 296.372 285.088 298.147 285.956C303.079 288.363 307.182 289.823 315.231 291.914C320.872 293.413 333.734 297.358 345.531 301.225C345.886 301.343 346.004 303.118 346.004 308.247V315.073L335.47 314.915C329.631 314.836 324.66 314.717 324.423 314.639C324.029 314.52 323.91 312.39 323.91 305.88C323.91 300.988 323.713 297.003 323.516 296.687C323.279 296.293 323.121 299.212 323.121 305.249V314.441H320.912C317.598 314.441 306.985 312.942 301.619 311.719L296.885 310.654L296.924 306.748C296.964 302.921 297.674 297.516 298.858 291.874C299.528 288.678 299.607 287.692 299.094 288.244C298.187 289.152 296.293 301.935 296.293 306.985C296.293 311.088 297.082 310.772 289.389 309.904C286.588 309.589 283.155 309.312 281.853 309.273L279.447 309.194L279.17 304.381L278.894 299.568L280.236 296.845C282.287 292.703 283.629 289.073 284.773 284.575C285.365 282.326 285.956 280.512 286.075 280.512C286.233 280.512 287.1 280.946 288.047 281.459ZM123.765 283.944C123.646 285.443 123.173 289.744 122.739 293.531C122.265 297.319 121.792 302.842 121.674 305.801L121.397 311.206L117.807 311.877C115.834 312.232 110.745 313.376 106.524 314.402C98.12 316.493 93.5829 317.44 93.3856 317.164C92.9122 316.651 95.0032 301.343 96.3446 295.346L97.2126 291.44L99.3825 290.493C104.866 288.047 111.495 285.404 116.505 283.668C119.543 282.603 122.068 281.656 122.226 281.537C122.344 281.419 122.778 281.301 123.212 281.301C123.922 281.301 123.962 281.498 123.765 283.944ZM99.8165 283.826C99.8165 284.102 100.25 285.167 100.763 286.193L101.71 288.047L100.724 288.442C100.211 288.639 96.9364 290.217 93.4645 291.953L87.1915 295.109L86.797 294.044C86.5602 293.413 86.1657 292.426 85.929 291.795C85.4161 290.493 84.627 291.085 93.1095 286.39C96.463 284.536 99.3431 283.076 99.5403 283.155C99.6981 283.234 99.8165 283.55 99.8165 283.826ZM348.174 295.425C348.174 296.135 346.28 300.238 345.925 300.238C345.294 300.238 330.459 295.504 330.144 295.188C329.986 295.03 330.341 294.123 330.972 293.137C331.919 291.519 332.472 290.296 333.142 288.323C333.3 287.732 334.444 288.205 340.757 291.361C344.82 293.452 348.174 295.267 348.174 295.425ZM85.3766 292.466C86.6391 295.543 86.8759 295.188 81.5891 297.989C78.9063 299.37 72.6727 302.605 67.6622 305.17C45.3317 316.611 38.3485 320.754 33.9298 325.251C31.6809 327.579 31.0102 327.895 30.6157 326.79C30.0634 325.409 33.1407 322.332 40.2423 317.164C49.9872 310.062 57.6016 305.485 75.5528 295.977C79.0247 294.123 82.4177 292.269 83.0489 291.874C84.627 290.927 84.7454 290.967 85.3766 292.466ZM95.2794 296.609C94.3325 300.712 92.7149 313.021 92.7149 315.941C92.7149 317.519 92.4782 317.637 86.0079 318.742C79.577 319.846 79.9321 319.886 80.2083 318.071C80.9973 313.218 82.4571 301.659 82.4177 300.554C82.3782 299.331 82.3782 299.291 82.0626 300.238C81.8653 300.791 81.4313 303.434 81.1157 306.156C80.4845 310.969 79.222 319.689 79.143 319.846C79.0641 319.965 54.4848 323.91 53.893 323.91C53.7352 323.91 53.6958 321.661 53.7352 318.9L53.8536 313.928L57.4044 311.995C62.0204 309.47 96.029 292.032 96.1473 292.15C96.2263 292.19 95.7923 294.202 95.2794 296.609ZM353.027 297.753C354.92 298.739 359.102 301.264 362.377 303.355C371.57 309.234 376.856 314.757 380.802 322.569C383.958 328.842 385.299 332.156 384.826 332.748C381.788 336.89 380.407 338.587 378.356 340.757C377.014 342.137 375.831 343.203 375.712 343.084C375.594 342.966 375.357 342.295 375.16 341.585C374.844 340.401 374.844 340.48 374.963 342.059C375.12 343.479 374.963 344.071 374.213 345.018C373.7 345.649 373.187 346.083 373.069 346.004C372.793 345.688 374.134 340.323 374.568 340.046C374.765 339.889 374.805 339.494 374.686 339.139C374.529 338.784 374.726 337.6 375.042 336.456C375.397 335.312 375.909 333.458 376.225 332.393C376.541 331.288 377.133 329.197 377.567 327.658C378.04 326.159 378.474 323.831 378.553 322.529C378.75 320.004 378.592 319.965 378.158 322.411C377.922 323.831 377.172 324.541 377.172 323.397C377.172 322.648 372.635 317.4 367.901 312.666C363.127 307.853 357.288 304.262 350.344 301.816C348.924 301.303 347.622 300.791 347.464 300.633C347.109 300.317 348.726 295.898 349.239 295.898C349.436 295.898 351.133 296.727 353.027 297.753ZM278.5 306.827L278.539 308.918H275.777H272.976L274.988 305.959C276.093 304.341 277.198 302.526 277.434 301.935C277.868 300.83 277.908 300.869 278.184 302.803C278.342 303.868 278.5 305.722 278.5 306.827ZM132.563 302.211C132.563 302.605 133.391 304.499 134.377 306.393C137.139 311.64 136.626 310.891 142.268 318.229C143.57 319.925 146.49 324.107 148.738 327.461C153.118 334.05 153.552 334.523 156.432 336.456C158.562 337.876 159.785 338.034 160.772 337.087C161.127 336.732 161.482 336.496 161.561 336.575C161.64 336.653 162.31 339.928 163.099 343.834C164.322 350.107 166.137 358.353 166.729 360.286C166.926 360.957 166.256 360.996 156.156 360.996C150.238 360.996 143.097 361.193 140.295 361.391C137.455 361.588 135.127 361.706 135.088 361.667C135.048 361.627 134.89 358.668 134.772 355.078C134.456 347.424 133.509 335.351 132.957 331.998C132.286 327.855 131.497 328.25 140.572 328.171C147.87 328.132 148.186 328.092 144.201 327.855C141.834 327.698 138.165 327.54 136.074 327.5L132.286 327.461L132.01 324.975C131.892 323.634 131.655 319.925 131.537 316.769L131.261 311.009L133.549 311.364C136.824 311.877 137.218 311.522 134.062 310.891L131.379 310.338V308.326C131.379 305.209 131.852 301.422 132.208 301.422C132.405 301.422 132.563 301.777 132.563 302.211ZM353.106 304.302C359.852 307.576 363.521 310.18 368.019 314.796C374.41 321.346 377.172 324.541 377.172 325.37C377.172 325.764 376.659 328.25 375.988 330.854C375.357 333.418 374.805 335.588 374.805 335.628C374.805 335.983 359.694 333.813 359.3 333.379C359.102 333.221 359.379 330.775 359.931 328.013C360.483 325.212 361.075 321.701 361.193 320.241L361.47 317.558L363.324 317.834C364.31 317.992 366.638 318.505 368.492 319.018C370.307 319.531 371.885 319.846 371.964 319.767C372.201 319.57 371.925 319.452 368.295 318.426C366.796 317.992 364.705 317.519 363.64 317.4L361.785 317.124L361.825 313.573C361.825 311.64 361.746 309.944 361.627 309.825C361.509 309.667 361.391 310.891 361.391 312.508C361.391 314.126 361.272 315.783 361.154 316.256L360.917 317.085L355.749 316.177C352.869 315.664 349.713 315.23 348.687 315.23H346.793V308.523V301.816L347.898 302.053C348.49 302.171 350.817 303.197 353.106 304.302ZM265.48 305.998C265.046 307.537 265.165 312.903 265.677 314.086C265.875 314.52 264.928 315.862 262.442 318.623C260.549 320.754 257.668 324.423 256.09 326.751C252.895 331.485 249.936 334.957 249.147 334.957C248.121 334.957 247.371 333.26 247.371 331.091C247.371 327.855 248.752 323.042 251.238 317.716C253.289 313.297 254.315 311.68 253.802 313.652C253.684 314.086 253.881 315.27 254.275 316.217L254.946 317.992L253.565 319.886C250.646 323.871 248.831 328.487 250.054 328.921C250.33 329.039 250.527 328.763 250.527 328.25C250.527 327.264 251.198 325.843 253.605 322.016C254.986 319.767 255.538 319.176 256.09 319.294C256.722 319.452 256.761 319.373 256.406 318.702C256.051 318.071 256.169 317.716 256.958 316.848C258.497 315.151 260.272 312.311 260.115 311.759C259.996 311.522 260.193 311.285 260.509 311.285C260.864 311.285 261.535 310.733 262.008 310.023C262.521 309.352 262.64 308.918 262.324 309.115C262.048 309.312 262.284 308.839 262.876 308.089C263.468 307.379 264.336 306.156 264.809 305.446C265.835 303.828 266.033 303.986 265.48 305.998ZM253.092 309.589C252.974 310.062 252.303 311.759 251.593 313.337C250.843 314.915 249.502 317.874 248.594 319.886C247.647 321.898 246.7 324.62 246.464 325.922C245.951 328.487 246.03 328.408 242.755 328.763C241.808 328.881 241.059 328.802 241.059 328.605C241.059 327.698 243.386 323.752 246.385 319.57C249.817 314.757 252.224 310.496 252.027 309.391C251.987 309.036 252.106 308.168 252.263 307.537L252.618 306.353L252.934 307.537C253.131 308.168 253.21 309.115 253.092 309.589ZM245.201 309.667C244.886 310.338 244.491 310.891 244.373 310.891C244.254 310.891 244.254 310.733 244.373 310.535C244.491 310.378 244.767 309.707 245.004 309.115C245.241 308.523 245.517 308.129 245.635 308.247C245.754 308.366 245.556 308.997 245.201 309.667ZM278.5 314.717C278.46 317.519 278.342 321.306 278.184 323.2L277.947 326.632L268.36 326.79C262.521 326.909 258.615 327.106 258.339 327.382C258.063 327.658 261.061 327.737 267.966 327.698L277.947 327.658L277.829 329.039C277.75 329.789 277.356 333.26 276.922 336.732C276.488 340.204 275.856 345.254 275.58 347.976C275.265 350.699 274.673 354.762 274.278 357.011L273.608 361.114L256.051 361.035C246.385 360.996 238.455 360.878 238.376 360.799C238.021 360.444 241.611 345.57 242.913 342.098C243.663 340.007 244.649 337.166 245.083 335.746L245.872 333.221L246.622 334.681C247.963 337.285 250.133 336.969 253.171 333.655C254.078 332.669 255.459 330.854 256.288 329.591C260.904 322.371 261.14 322.056 267.611 314.915L272.345 309.707H275.462H278.539L278.5 314.717ZM289.192 310.733C292.979 311.088 296.175 311.443 296.293 311.561C296.372 311.64 296.411 312.824 296.372 314.165C296.254 317.992 295.82 328.053 295.741 328.132C295.662 328.25 279.565 327.066 279.131 326.909C278.894 326.83 278.815 325.409 279.013 323.082C279.131 321.03 279.289 317.203 279.289 314.52L279.328 309.707L280.827 309.904C281.617 309.983 285.404 310.378 289.192 310.733ZM130.748 313.337C130.866 314.717 131.063 318.032 131.182 320.754C131.3 323.476 131.458 326.041 131.616 326.475C131.813 327.224 131.537 327.303 128.341 327.776C126.447 328.013 124.199 328.368 123.37 328.487L121.871 328.763L122.029 320.32L122.226 311.877L125.5 311.443C130.945 310.693 130.511 310.535 130.748 313.337ZM301.225 312.469C305.249 313.455 314.086 314.757 319.176 315.073L323.121 315.349V323.239V331.13L318.111 330.854C315.349 330.696 311.127 330.262 308.721 329.828C306.354 329.434 302.645 328.881 300.554 328.605L296.688 328.132V325.883C296.688 319.846 297.24 311.68 297.634 311.68C297.871 311.68 299.489 312.035 301.225 312.469ZM121.516 315.743C121.516 317.795 121.397 321.582 121.279 324.186L121.003 328.921L116.229 329.591C113.586 329.946 107.825 331.13 103.367 332.156C98.9091 333.221 94.6876 334.207 94.0169 334.326L92.7149 334.523L92.7544 327.343C92.7938 323.397 92.9122 319.728 93.07 319.215C93.3067 318.347 93.8196 318.15 99.2247 316.966C102.499 316.256 106.563 315.309 108.299 314.836C111.85 313.889 119.78 312.153 120.845 312.114C121.437 312.074 121.516 312.508 121.516 315.743ZM52.8673 319.294V324.107L49.6321 324.778C45.6079 325.607 37.7567 329.394 34.995 331.801C33.9692 332.748 33.2196 333.576 33.338 333.694C33.4563 333.813 34.0481 333.458 34.6399 332.945C38.5063 329.394 45.2528 326.198 50.8157 325.173C52.7489 324.818 52.8673 324.857 52.8673 325.646C52.9067 326.08 52.9856 329.394 53.104 332.984L53.3407 339.534L48.488 340.954C45.8052 341.703 42.3727 342.808 40.8341 343.36C39.3348 343.913 37.5594 344.465 36.8887 344.584L35.7052 344.82L34.6005 340.283C34.0087 337.798 32.9829 334.128 32.3122 332.116L31.0891 328.447L31.9966 327.855C32.47 327.54 33.9298 326.435 35.2712 325.449C39.4137 322.253 43.8325 319.373 48.3302 316.887C50.7368 315.585 52.7094 314.481 52.7884 314.481C52.8278 314.441 52.8673 316.611 52.8673 319.294ZM345.491 315.822C345.807 315.901 345.925 316.453 345.807 317.085C345.728 317.676 345.452 320.478 345.215 323.318C344.978 326.119 344.663 329.236 344.584 330.183L344.347 331.919L334.405 331.722C328.921 331.603 324.265 331.446 324.068 331.327C323.871 331.169 323.752 327.737 323.831 323.239L323.95 315.428L334.484 315.546C340.283 315.585 345.254 315.704 345.491 315.822ZM355.078 316.611C361.667 317.676 361.115 317.361 360.799 319.689C360.562 321.622 360.049 324.581 358.945 330.735L358.471 333.418L357.051 333.182C353.895 332.55 350.817 332.195 348.687 332.195C347.464 332.195 346.201 332.077 345.846 331.959C345.018 331.643 345.018 328.802 345.807 322.924C346.122 320.517 346.399 317.992 346.399 317.282V316.019H348.884C350.226 316.019 353.027 316.296 355.078 316.611ZM92.0048 326.356C91.9259 330.775 91.8075 334.405 91.7286 334.484C91.5708 334.681 85.1399 335.667 82.4177 335.943L79.8137 336.18L79.6165 331.722C79.4981 329.276 79.4981 325.764 79.6559 323.91L79.8927 320.557L85.6134 319.531C88.7696 318.939 91.5313 318.466 91.7286 318.426C92.0048 318.387 92.0837 321.069 92.0048 326.356ZM78.9063 328.447C78.9063 335.509 78.8669 336.141 78.2356 336.141C77.5649 336.141 72.9884 336.732 60.2055 338.468C56.9309 338.902 54.2481 339.257 54.2087 339.178C54.1692 339.139 54.0114 335.904 53.8536 331.959L53.5774 324.818L55.9052 324.384C57.1677 324.147 61.3102 323.476 65.0977 322.924C68.8852 322.371 73.2645 321.661 74.7637 321.385C79.3798 320.478 78.9063 319.649 78.9063 328.447ZM162.231 327.776C163.06 328.802 164.717 330.972 165.979 332.59C167.202 334.207 169.688 337.127 171.503 339.06C173.318 341.033 174.777 342.808 174.777 343.005C174.777 343.242 176.119 346.004 177.736 349.2C180.222 354.052 182.668 359.812 182.668 360.759C182.668 360.878 179.315 360.996 175.172 360.996H167.715L167.321 359.497C166.453 356.341 165.309 351.014 163.77 343.36C162.508 337.009 162.271 335.115 162.586 334.207C162.863 333.418 162.863 332.55 162.547 331.327C161.955 329.118 160.574 325.883 160.18 325.883C159.904 325.883 158.996 324.147 158.996 323.594C158.996 323.437 159.391 323.91 159.904 324.66C160.377 325.37 161.442 326.79 162.231 327.776ZM31.8387 333.379C33.5747 339.021 33.7325 342.374 32.5884 347.661C32.2333 349.318 31.9571 350.817 31.9571 350.935C31.9571 351.054 31.7598 351.133 31.5231 351.133C30.9708 351.133 22.4884 342.848 22.4884 342.295C22.5278 341.506 25.8813 333.931 27.8145 330.42C29.3532 327.54 29.7872 327.027 30.0239 327.658C30.1817 328.092 31.0102 330.657 31.8387 333.379ZM287.929 328.408C292.111 328.723 295.622 329 295.701 329.078C295.899 329.315 295.188 340.875 294.557 347.187C293.808 354.407 293.571 357.485 293.452 360.128C293.413 361.272 293.295 362.298 293.176 362.377C293.058 362.456 290.099 362.259 286.627 361.943C283.155 361.667 279.013 361.43 277.474 361.391C274.081 361.391 274.239 361.903 275.343 354.92C275.777 352.316 276.409 347.661 276.803 344.623C277.158 341.585 277.79 336.535 278.145 333.379C278.539 330.223 278.855 327.619 278.894 327.579C278.934 327.579 279.249 327.619 279.644 327.698C279.999 327.816 283.747 328.132 287.929 328.408ZM131.774 328.526C131.774 328.723 131.971 329.946 132.168 331.288C132.839 335.351 133.707 346.438 133.983 354.289L134.259 361.746L132.918 361.943C132.168 362.061 130.511 362.259 129.209 362.377C127.907 362.495 126.29 362.693 125.619 362.811L124.396 363.048L124.159 356.38C124.001 352.75 123.646 348.055 123.291 346.004C122.739 342.493 121.713 329.868 121.989 329.631C122.226 329.394 128.854 328.329 130.314 328.289C131.103 328.25 131.774 328.368 131.774 328.526ZM245.517 331.682C245.28 332.748 244.018 336.693 242.716 340.48C241.295 344.465 239.678 350.225 238.81 354.171L237.35 360.996H233.681C231.629 360.996 230.012 360.838 230.012 360.601C230.012 359.773 234.154 346.675 235.811 342.256C238.77 334.365 240.309 330.42 240.625 330.144C241.059 329.67 245.162 329.157 245.556 329.512C245.793 329.71 245.793 330.538 245.517 331.682ZM306.314 330.301C308.721 330.735 313.495 331.288 316.967 331.525L323.2 331.919L323.003 334.523C322.766 337.364 321.74 352.514 321.267 359.97L320.951 364.665L315.743 364.586C312.903 364.547 309.352 364.389 307.853 364.192C306.393 363.994 303.829 363.639 302.211 363.403C300.593 363.205 298.029 362.89 296.569 362.771L293.886 362.495L294.123 359.694C294.242 358.116 294.597 354.171 294.912 350.935C295.78 341.98 296.254 335.904 296.372 332.235L296.49 328.96L299.213 329.236C300.712 329.355 303.908 329.868 306.314 330.301ZM121.279 332.274C121.397 333.655 121.674 337.245 121.91 340.283C122.147 343.321 122.502 346.517 122.739 347.385C122.936 348.253 123.212 352.08 123.37 355.946L123.607 362.89L121.871 363.126C103.407 365.454 96.5419 366.322 94.0169 366.756L92.7149 366.953V351.014V335.075L94.6876 334.839C95.7923 334.72 100.053 333.773 104.117 332.787C111.337 331.051 117.255 329.946 119.819 329.868L121.042 329.828L121.279 332.274ZM239.204 331.288C236.877 336.851 233.129 347.345 231.195 353.697L228.907 361.193L223.384 361.312L217.86 361.43L219.399 357.445C221.095 353.026 223.265 348.647 225.79 344.347C226.737 342.769 228 340.401 228.592 339.1C229.696 336.772 232.418 331.327 232.576 331.091C232.774 330.854 237.547 329.907 238.77 329.868L239.836 329.828L239.204 331.288ZM344.426 333.26C344.426 333.892 344.071 337.64 343.637 341.664C343.124 346.438 342.848 351.764 342.848 356.972V364.981L332.393 364.902L321.938 364.823V362.811C321.938 359.812 322.608 349.2 323.397 340.165L324.068 332.195H334.247H344.426V333.26ZM355.591 333.418L358.274 333.931L358.037 336.693C357.879 338.232 357.564 345.215 357.288 352.237C357.011 359.221 356.656 365.06 356.538 365.178C356.42 365.296 353.382 365.257 349.792 365.099L343.242 364.823V360.641C343.242 354.684 344.465 336.811 345.097 333.616L345.333 332.471L349.121 332.708C351.212 332.826 354.092 333.142 355.591 333.418ZM386.562 337.324C386.996 339.178 387.667 342.729 388.022 345.215C388.337 347.7 388.732 350.225 388.85 350.778C389.008 351.685 388.811 351.922 386.956 352.829C385.812 353.421 383.406 355.118 381.63 356.656C377.843 359.891 378.316 360.325 377.369 352.514C377.014 349.673 376.541 346.714 376.343 345.885L375.949 344.386L378.947 341.191C380.644 339.415 382.695 336.93 383.603 335.667C384.51 334.405 385.339 333.497 385.497 333.655C385.615 333.852 386.128 335.47 386.562 337.324ZM362.219 334.72C363.679 335.036 366.954 335.509 369.518 335.746C372.122 336.022 374.292 336.298 374.371 336.377C374.647 336.653 367.782 364.941 367.309 365.454C367.151 365.651 364.823 365.651 362.14 365.454C357.564 365.178 357.248 365.099 357.327 364.35C357.367 363.916 357.603 358.668 357.84 352.711C358.353 338.547 358.747 334.168 359.339 334.168C359.497 334.168 360.799 334.444 362.219 334.72ZM92.0442 343.321C92.202 347.74 92.3204 354.802 92.3204 359.063V366.835L90.6634 367.032C89.7165 367.19 87.5466 367.387 85.8106 367.506C84.0747 367.624 81.9837 367.821 81.1946 367.94L79.6954 368.176V352.395V336.614L83.5618 336.338C85.6528 336.18 88.1778 335.943 89.1641 335.746C90.1505 335.588 91.1368 335.43 91.3735 335.391C91.6497 335.351 91.8864 337.955 92.0442 343.321ZM78.9852 339.178C79.1825 341.703 78.9063 367.821 78.7091 368.019C78.6302 368.098 73.8169 368.255 67.9778 368.334C62.1782 368.453 56.7731 368.571 55.9841 368.65L54.5637 368.808L54.327 358.471C54.1692 352.829 54.0509 346.359 54.0509 344.15C54.0509 340.283 54.0903 340.086 54.9583 339.928C57.9962 339.297 75.1188 337.048 77.6044 336.969C78.8274 336.93 78.8274 336.93 78.9852 339.178ZM53.3802 346.675C53.538 350.265 53.6563 356.735 53.6563 361.035C53.6563 368.847 53.6563 368.887 52.7884 369.044C52.2755 369.163 50.2634 369.518 48.2512 369.912C46.2391 370.268 44.3059 370.82 43.9114 371.096C43.2802 371.609 43.2802 371.609 44.1876 371.293C45.2923 370.899 50.8946 369.794 52.5911 369.597L53.6958 369.478L53.7747 377.527L53.8536 385.536L51.6837 385.694C50.5001 385.812 49.1587 385.93 48.7247 386.049C48.0145 386.207 47.7384 385.812 46.8704 383.366C45.0161 378.276 39.9266 362.416 39.0587 358.984C37.7173 353.697 36.3759 348.292 36.0997 346.951L35.863 345.688L38.743 344.82C40.3212 344.347 42.7673 343.518 44.1876 342.966C46.3575 342.098 52.1571 340.204 52.9067 340.125C53.0251 340.086 53.2618 343.045 53.3802 346.675ZM34.995 345.885C35.3106 347.582 35.7841 349.673 36.0602 350.541C36.9282 353.184 37.1255 354.289 36.7309 354.289C36.5337 354.289 35.429 353.737 34.3243 353.026C32.9829 352.198 32.3911 351.606 32.5094 351.172C33.0223 349.555 33.9298 344.505 33.9298 343.479C33.9298 341.585 34.3637 342.611 34.995 345.885ZM31.3259 352.514C31.2864 352.711 30.8919 354.841 30.4579 357.248C30.0239 359.615 29.511 362.89 29.3927 364.428C29.2348 366.007 28.9192 367.309 28.7219 367.309C28.2091 367.309 21.4626 360.562 19.845 358.432C19.1743 357.564 18.5036 356.972 18.3458 357.09C17.9907 357.485 24.8161 364.941 26.986 366.519C29.1559 368.098 29.1165 367.19 27.6173 376.975C27.1438 380.012 26.2759 386.759 25.6841 391.927L24.6188 401.357L21.7782 398.871C20.1606 397.49 17.4778 394.728 15.8208 392.716C12.2305 388.455 12.4673 390.507 14.0454 376.58C15.3473 365.099 16.4915 359.891 19.7266 350.068C20.6735 347.306 21.5809 344.584 21.7782 344.071C22.0938 343.163 22.3305 343.321 26.7493 347.621C29.2743 350.107 31.3259 352.277 31.3259 352.514ZM177.184 344.662C177.855 345.491 181.248 347.148 185.943 348.963C188.034 349.752 190.795 351.093 192.058 351.922C194.938 353.816 203.184 360.878 203.184 361.469C203.184 361.903 191.308 361.706 185.982 361.154L183.575 360.917L182.668 358.076C182.195 356.538 180.498 352.75 178.92 349.634C176.316 344.505 175.803 343.005 177.184 344.662ZM375.791 345.885C375.949 346.517 376.462 349.831 376.935 353.303L377.843 359.576L377.014 360.286C372.319 364.31 369.281 366.243 368.611 365.612C368.492 365.494 368.768 363.916 369.242 362.101C369.676 360.286 370.426 357.13 370.899 355.078C372.517 347.898 372.714 347.345 373.858 346.122C375.318 344.584 375.436 344.584 375.791 345.885ZM34.9161 354.013L37.2438 355.275L39.2954 362.771C40.4395 366.875 41.3864 370.583 41.3864 370.978C41.4259 371.609 41.2286 371.688 40.1634 371.451C38.5063 371.057 29.9844 368.255 29.7083 367.94C29.2743 367.506 31.7993 352.711 32.3122 352.711C32.4305 352.711 33.6141 353.303 34.9161 354.013ZM378.119 362.653C378.277 363.797 378.671 366.914 379.026 369.597C379.342 372.24 379.579 374.489 379.5 374.528C379.421 374.607 378.119 375.594 376.659 376.738C375.199 377.921 373.937 378.789 373.858 378.71C373.818 378.632 373.424 376.343 373.069 373.621C372.674 370.899 372.24 368.058 372.043 367.309L371.727 365.928L371.688 367.703C371.649 368.689 372.004 371.688 372.438 374.371C373.108 378.316 373.148 379.342 372.753 379.618C372.043 380.052 367.861 381.354 366.007 381.669C364.665 381.906 364.508 381.867 364.705 381.235C364.823 380.841 365.02 379.815 365.139 378.947C365.376 377.211 366.717 371.451 367.585 368.255C368.098 366.322 368.216 366.204 369.636 366.007C370.465 365.928 371.491 365.533 371.885 365.218C372.28 364.902 373.7 363.718 375.002 362.614C376.304 361.548 377.488 360.641 377.645 360.641C377.764 360.601 378.001 361.548 378.119 362.653ZM168.189 366.046C168.978 369.321 169.254 371.293 169.254 374.331V378.355H166.611C161.008 378.355 137.06 379.144 136.034 379.381L134.93 379.618V371.096C134.93 362.614 134.93 362.574 135.837 362.377C137.258 362.061 141.4 361.943 154.656 361.864L167.124 361.785L168.189 366.046ZM183.26 362.653C184.325 367.23 184.759 370.149 184.917 373.897L185.154 378.355H177.579H170.043V374.489C170.043 371.767 169.767 369.518 169.057 366.598C168.504 364.35 168.07 362.377 168.07 362.14C168.07 361.943 171.187 361.785 175.567 361.785C182.984 361.785 183.063 361.785 183.26 362.653ZM228.513 362.022C228.67 362.14 228.315 363.521 227.802 365.06C226.422 369.044 224.488 376.619 224.488 378V379.144H218.768H213.047L213.284 378.04C213.442 377.448 213.875 376.264 214.231 375.396C214.625 374.528 215.059 372.674 215.177 371.254C215.296 369.873 215.888 367.269 216.479 365.454L217.545 362.219L220.898 362.061C222.752 362.022 225.199 361.903 226.303 361.864C227.408 361.825 228.394 361.903 228.513 362.022ZM236.995 362.653C236.403 365.178 235.93 369.597 235.693 374.094L235.456 379.105L230.367 379.223L225.277 379.342V378.237C225.277 376.698 227.566 367.979 229.42 362.259C229.538 361.943 230.722 361.785 233.405 361.785C237.153 361.785 237.192 361.785 236.995 362.653ZM273.41 362.85C273.41 363.482 273.134 367.309 272.74 371.451L272.069 378.947H254.157H236.245L236.482 374.016C236.719 369.597 237.192 365.178 237.745 362.653L237.902 361.785H255.656H273.41V362.85ZM216.598 362.416C216.598 362.535 216.124 364.152 215.572 365.928L214.546 369.242L213.323 367.821C212.297 366.677 211.942 366.48 210.917 366.677C207.76 367.19 206.577 367.545 206.458 367.979C206.34 368.295 207.05 368.216 208.747 367.782L211.193 367.19L212.495 368.61C214.191 370.465 214.546 372.437 213.639 374.765C213.244 375.751 212.85 377.172 212.731 377.882C212.574 379.105 212.455 379.184 211.508 378.947C210.956 378.829 208.036 378.592 205.077 378.474C202.079 378.355 199.633 378.158 199.633 378C199.633 377.211 201.369 370.701 202.592 366.953L204.012 362.614L207.247 362.456C213.836 362.219 216.598 362.18 216.598 362.416ZM285.799 362.653L293.255 363.126L293.018 367.506C292.861 369.873 292.545 373.621 292.308 375.83L291.874 379.815L287.85 379.657C272.306 379.105 272.542 379.144 272.779 378.198C272.897 377.724 273.174 374.647 273.41 371.333C273.608 368.058 273.923 364.626 274.042 363.758L274.318 362.18H276.33C277.434 362.18 281.695 362.377 285.799 362.653ZM134.141 366.441C134.141 368.61 134.259 372.201 134.377 374.45C134.496 376.698 134.417 378.789 134.22 379.066C134.022 379.381 132.208 379.618 128.933 379.815L123.962 380.052L124.159 372.003C124.277 367.585 124.475 363.876 124.554 363.758C124.711 363.56 131.024 362.732 133.075 362.614L134.141 362.574V366.441ZM302.014 364.152C306.156 364.586 312.153 365.06 315.349 365.178L321.227 365.454L320.991 368.453C320.872 370.11 320.675 373.739 320.517 376.501L320.281 381.551L316.848 381.314C314.994 381.196 312.311 380.92 310.891 380.723C309.47 380.525 304.894 380.249 300.672 380.131C296.451 380.012 292.9 379.855 292.821 379.736C292.703 379.618 292.821 376.935 293.097 373.739C293.729 365.573 294.005 363.363 294.281 363.363C294.399 363.363 297.911 363.718 302.014 364.152ZM123.409 371.925L123.291 380.131L118.754 380.368C116.268 380.525 113.152 380.841 111.85 381.078C108.299 381.709 92.202 383.918 92.0837 383.76C92.0048 383.682 92.1231 380.525 92.3204 376.738C92.5177 372.95 92.7149 369.321 92.7149 368.689V367.466L98.7513 366.756C102.026 366.362 108.378 365.573 112.836 364.941C117.294 364.35 121.516 363.837 122.226 363.797L123.528 363.758L123.409 371.925ZM342.453 365.533C342.572 365.612 342.493 369.163 342.256 373.503L341.861 381.314L331.249 381.433L320.636 381.512L320.912 379.657C321.07 378.592 321.346 375.002 321.543 371.648C321.74 368.295 321.898 365.494 321.898 365.415C321.938 365.296 342.217 365.415 342.453 365.533ZM356.538 372.911C356.38 376.896 356.183 380.565 356.025 381.078C355.749 381.985 355.709 381.985 351.37 381.748C348.963 381.63 345.965 381.512 344.742 381.512H342.493L342.651 379.026C342.769 377.685 342.966 374.134 343.084 371.135L343.321 365.73H350.068H356.775L356.538 372.911ZM367.23 366.322C367.309 366.401 366.756 368.374 366.007 370.741C364.942 374.016 363.363 380.565 363.363 381.748C363.363 381.827 361.825 381.906 359.97 381.906H356.577L356.814 380.604C356.933 379.934 357.051 376.264 357.09 372.477L357.13 365.651L362.101 365.928C364.863 366.085 367.151 366.243 367.23 366.322ZM91.6891 373.897C91.5313 377.33 91.2946 380.999 91.1763 382.103C90.9395 384.037 90.9001 384.076 89.3614 384.352C88.4934 384.471 85.7712 384.747 83.3645 384.905L78.9063 385.181L79.143 377.33C79.2614 373.029 79.4192 369.242 79.5376 368.966C79.6165 368.65 80.5239 368.492 82.1415 368.453C83.5223 368.413 85.6923 368.255 86.9942 368.098C88.2962 367.94 89.9532 367.782 90.6634 367.743L91.9653 367.703L91.6891 373.897ZM78.6696 376.067C78.5512 380.052 78.3934 383.682 78.2751 384.155C78.1567 384.905 77.7622 385.023 75.2766 385.26C73.6985 385.418 68.4118 385.575 63.5591 385.575L54.7216 385.654L54.5637 377.487L54.3665 369.36L55.3134 369.202C55.7868 369.123 61.3102 369.044 67.5438 368.966L78.9063 368.847L78.6696 376.067Z" fill="#007BFF"/>
<path d="M234.154 90.3871C232.655 90.5844 229.933 90.9 228.118 91.1367C224.607 91.5313 218.965 93.6223 218.649 94.6481C218.412 95.3188 220.385 95.1215 226.855 93.8196C230.88 93.0305 232.379 92.9121 240.467 92.9516C246.898 93.0305 250.014 93.1883 251.159 93.5434C252.658 94.0563 252.263 94.0957 246.7 93.9379C242.163 93.859 239.914 93.9774 237.942 94.4114C232.024 95.7922 222.871 96.4235 218.886 95.7528C217.623 95.5555 216.992 95.5555 216.992 95.8317C216.992 97.3309 224.33 97.9227 231.037 96.9364C244.886 94.8848 246.74 94.7664 251.711 95.7133C253.565 96.0684 255.617 96.4235 256.248 96.5418C256.919 96.6602 258.221 97.3309 259.168 98.0016C262.403 100.29 263.626 101.039 263.823 100.882C264.573 100.132 258.418 94.5297 255.025 92.8727C251.198 91.0184 239.757 89.6375 234.154 90.3871Z" fill="#007BFF"/>
<path d="M161.363 91.0184C151.934 92.4781 149.409 93.1883 145.464 95.516C141.992 97.5676 140.335 99.0668 138.204 101.986C137.257 103.288 136.113 104.551 135.6 104.827L134.732 105.3L135.719 105.34C136.389 105.34 137.455 104.511 139.467 102.46C145.227 96.4234 149.961 94.4508 160.574 93.5039C165.545 93.0305 174.146 93.1488 180.498 93.7406L182.865 93.9773L181.09 92.7938C180.064 92.0836 178.328 91.4129 176.987 91.1762C174.817 90.7816 163.612 90.6633 161.363 91.0184Z" fill="#007BFF"/>
<path d="M157.024 95.516C151.106 96.384 149.331 96.8574 146.096 98.2777C143.531 99.4219 142.821 100.014 144.715 99.4219C149.449 97.8832 158.839 96.2656 162.942 96.2656C164.362 96.2656 167.992 96.5418 170.991 96.9363C176.948 97.6465 181.367 97.3703 183.852 96.0683C185.549 95.2004 185.391 94.5297 183.576 94.8847C179.71 95.6344 177.027 95.7133 172.056 95.2398C165.151 94.5691 163.021 94.6086 157.024 95.516Z" fill="#007BFF"/>
<path d="M237.508 107.865C235.219 108.457 226.934 111.85 226.303 112.481C225.593 113.152 228.433 112.836 229.933 112.086C230.722 111.692 233.247 110.784 235.495 110.074C239.401 108.891 239.875 108.812 244.767 108.97C250.685 109.127 252.342 109.68 255.695 112.481C256.958 113.507 257.629 113.901 257.629 113.507C257.629 112.56 254.946 110.469 251.79 108.97C249.067 107.668 248.594 107.589 244.294 107.47C241.216 107.352 238.967 107.51 237.508 107.865Z" fill="#007BFF"/>
<path d="M213.165 108.97C212.692 109.482 211.627 111.021 210.719 112.402C208.944 115.203 208.786 116.189 209.496 120.727C209.891 123.173 211.627 128.38 212.337 129.17C212.968 129.959 212.613 127.789 211.706 125.303C211.153 123.922 210.522 121.042 210.285 118.951L209.851 115.164L211.153 113.112C211.863 111.968 213.047 110.39 213.797 109.561C214.625 108.654 214.901 108.102 214.546 108.102C214.231 108.102 213.599 108.496 213.165 108.97Z" fill="#007BFF"/>
<path d="M189.375 108.733C189.375 108.97 189.809 109.995 190.322 111.1C191.545 113.625 192.531 116.584 192.531 117.689C192.531 118.162 191.663 121.121 190.559 124.277C188.704 129.643 188.152 132.05 188.941 131.142C189.296 130.748 191.742 124.12 192.728 120.924C193.596 117.965 193.478 116.623 191.9 112.875C190.559 109.719 189.375 107.786 189.375 108.733Z" fill="#007BFF"/>
<path d="M158.405 109.561C156.393 109.995 150.357 112.165 149.133 112.875C148.384 113.309 148.108 113.546 148.542 113.388C155.091 111.139 157.813 110.469 161.522 110.232C164.915 110.035 165.98 110.114 168.308 110.784C177.106 113.388 181.485 114.059 176.119 111.968C171.227 110.074 167.282 109.285 163.06 109.325C160.93 109.364 158.839 109.443 158.405 109.561Z" fill="#007BFF"/>
<path d="M236.522 113.428C235.417 113.901 233.05 114.809 231.196 115.361C227.29 116.623 223.621 118.359 221.924 119.701C219.912 121.318 220.978 121.792 227.448 122.028C230.841 122.186 232.735 122.147 232.34 121.91C231.985 121.713 229.973 121.516 227.803 121.476C225.672 121.437 223.463 121.239 222.911 121.042C222.003 120.687 222.082 120.608 224.41 119.306C225.791 118.517 228.395 117.491 230.249 117.018L233.563 116.11V117.373C233.563 118.083 233.879 119.069 234.273 119.582C234.668 120.095 235.102 120.805 235.26 121.2C235.654 122.265 239.639 123.528 241.809 123.252C243.86 122.975 244.57 122.581 245.557 121.042C246.385 119.74 246.543 116.663 245.794 115.795C245.478 115.44 244.728 114.927 244.058 114.611L242.835 114.098L244.413 114.296C245.281 114.414 247.056 114.927 248.358 115.44C249.66 115.913 251.554 116.623 252.579 116.978C253.605 117.373 255.026 118.083 255.736 118.635C256.88 119.464 257.038 119.503 257.156 118.912C257.432 117.61 255.302 116.11 251.159 114.69C244.136 112.284 239.797 111.889 236.522 113.428ZM239.008 115.716C239.086 116.466 238.968 116.781 238.495 116.781C237.745 116.781 237.311 115.834 237.666 114.966C238.021 114.059 238.889 114.532 239.008 115.716ZM243.19 115.992C243.584 116.347 243.19 117.176 242.598 117.176C242.401 117.176 242.085 116.86 241.967 116.466C241.809 116.11 241.533 115.637 241.296 115.479C241.059 115.282 241.296 115.282 241.848 115.4C242.401 115.558 242.992 115.834 243.19 115.992Z" fill="#007BFF"/>
<path d="M160.14 115.124C158.68 115.519 156.826 116.11 155.997 116.465C155.129 116.821 153.196 117.57 151.618 118.162C148.975 119.109 145.306 121.358 145.661 121.752C145.779 121.831 146.529 121.555 147.397 121.16C150.592 119.622 150.908 119.661 152.486 121.871C153.749 123.606 154.261 123.962 156.155 124.553C157.418 124.908 159.745 125.224 161.363 125.224C163.809 125.264 164.717 125.066 166.61 124.159C169.333 122.817 170.24 121.397 169.845 119.148C169.688 118.32 169.333 117.333 169.056 116.899C168.543 116.268 168.504 116.347 168.465 117.965C168.465 118.951 168.149 120.332 167.754 121.081C167.005 122.62 165.269 124.08 164.48 123.804C164.204 123.725 164.598 123.291 165.387 122.817C166.571 122.107 166.808 121.752 167.044 120.135C167.32 117.846 166.61 116.781 164.835 116.781C164.164 116.781 163.77 116.623 163.927 116.387C164.243 115.874 163.493 115.874 162.507 116.387C162.034 116.663 161.758 116.663 161.758 116.426C161.758 115.716 163.257 115.558 166.926 115.795C169.964 115.992 171.345 116.347 175.053 117.807C177.539 118.754 179.669 119.543 179.867 119.543C180.064 119.543 180.419 119.78 180.656 120.095C181.05 120.569 180.734 120.805 178.92 121.476C177.697 121.949 176.434 122.305 176.04 122.344C175.684 122.344 175.014 122.541 174.58 122.739C174.027 122.975 174.54 123.015 176.158 122.857C178.446 122.62 181.168 121.792 182.194 121.003C183.023 120.332 181.681 119.267 178.367 118.004C176.71 117.373 174.343 116.347 173.081 115.795C170.003 114.374 164.085 114.059 160.14 115.124ZM158.956 118.28C157.536 121.081 158.483 123.015 161.836 124.119L163.533 124.672L160.692 124.514C157.023 124.277 154.143 123.054 153.038 121.239C152.249 119.977 152.21 119.819 152.841 119.227C153.393 118.675 159.39 116.347 159.667 116.544C159.706 116.584 159.39 117.373 158.956 118.28ZM163.178 118.162C163.336 118.478 163.296 119.03 163.178 119.346C163.02 119.858 162.783 119.898 162.152 119.543C161.718 119.306 161.363 119.227 161.363 119.346C161.363 119.78 162.744 121.713 163.415 122.226C164.361 122.896 164.006 123.449 162.783 123.212C161.836 123.015 160.101 121.515 160.811 121.515C161.008 121.515 160.89 121.318 160.574 121.121C160.179 120.845 160.101 120.648 160.416 120.411C160.653 120.253 161.008 119.701 161.166 119.148C161.639 117.61 162.783 117.057 163.178 118.162ZM165.387 120.529C165.308 121.081 165.072 121.437 164.914 121.318C164.519 121.081 164.874 119.543 165.308 119.543C165.466 119.543 165.506 119.977 165.387 120.529Z" fill="#007BFF"/>
<path d="M161.709 117.62C161.642 117.727 161.576 117.829 161.512 117.928C160.573 119.559 162.053 119.952 163.568 121.972C163.631 121.903 163.702 121.833 163.78 121.762C170.039 121.762 165.981 117.259 162.744 116.288C162.744 116.683 162.567 117.383 161.857 117.028C160.969 116.584 161.265 115.696 162.3 115.696C163.336 115.696 168.81 113.181 169.698 119.247C170.296 123.336 165.92 124.4 164.001 123.753C163.976 123.777 163.952 123.803 163.928 123.834C163.336 124.573 162.596 123.981 160.673 122.058C158.808 120.193 159.447 121.111 161.512 117.928C161.569 117.83 161.634 117.727 161.709 117.62Z" fill="#007BFF"/>
<path d="M161.709 117.62C159.489 121.17 158.75 120.135 160.673 122.058C162.596 123.981 163.336 124.573 163.928 123.834C164.52 123.094 165.259 124.277 163.632 122.058C162.005 119.839 160.377 119.543 161.709 117.62ZM163.78 121.762C160.525 124.721 170.586 125.313 169.698 119.247C168.81 113.181 163.336 115.696 162.3 115.696C161.265 115.696 160.969 116.584 161.857 117.028C162.567 117.383 162.744 116.683 162.744 116.288C165.981 117.259 170.039 121.762 163.78 121.762Z" stroke="#007BFF" stroke-width="0.295898"/>
<path d="M251.356 119.898C250.567 121.397 248.673 122.62 246.029 123.252C245.438 123.409 245.004 123.607 245.122 123.725C245.201 123.843 246.463 123.607 247.884 123.252C250.646 122.581 251.435 121.831 252.105 119.503C252.579 117.925 252.263 118.083 251.356 119.898Z" fill="#007BFF"/>
<path d="M233.957 128.144C235.575 129.209 242.164 130.59 245.478 130.59C250.37 130.59 250.133 129.919 245.083 129.682C242.755 129.564 239.717 129.17 238.297 128.814C234.391 127.868 233.247 127.71 233.957 128.144Z" fill="#007BFF"/>
<path d="M167.4 129.84C163.809 131.103 160.061 131.773 156.353 131.773C154.972 131.773 153.867 131.931 153.867 132.168C153.867 132.799 160.771 132.641 163.257 131.931C165.703 131.261 171.621 129.012 171.621 128.775C171.621 128.459 170.635 128.736 167.4 129.84Z" fill="#007BFF"/>
<path d="M119.464 132.839C118.162 134.298 117.807 136.902 117.768 145.503C117.768 150.159 117.846 153.985 117.965 154.064C118.083 154.143 118.438 153.67 118.714 153.039C119.109 152.131 119.148 150.987 118.833 147.949C118.478 143.925 118.833 136.547 119.543 134.732C119.74 134.18 120.214 133.746 120.608 133.746C121.358 133.746 125.343 137.731 126.211 139.388C126.723 140.374 126.684 140.532 124.869 142.623C123.843 143.846 123.094 144.951 123.252 145.069C123.607 145.464 125.066 143.964 125.895 142.307C126.329 141.518 126.723 140.848 126.842 140.848C126.921 140.848 127.276 141.321 127.591 141.913C128.025 142.702 128.183 142.82 128.223 142.307C128.223 141.597 125.5 135.995 124.593 134.93C123.883 134.062 121.871 132.72 120.884 132.405C120.371 132.247 119.859 132.405 119.464 132.839Z" fill="#007BFF"/>
<path d="M212.06 146.923C211.784 149.567 212.06 150.869 212.692 149.882C213.165 149.133 213.126 144.398 212.692 144.398C212.494 144.398 212.179 145.542 212.06 146.923Z" fill="#007BFF"/>
<path d="M221.727 145.306C221.727 145.582 222.358 146.568 223.108 147.476C226.027 150.869 227.645 156.747 226.343 159.233C225.238 161.324 223.463 162.547 218.926 164.401C212.455 166.966 212.613 167.084 219.794 165.19C224.291 164.007 225.633 163.375 226.974 161.797C228.75 159.667 228.986 158.207 228.237 154.025C227.605 150.435 227.487 150.159 225.435 147.791C223.581 145.622 222.595 144.793 221.885 144.793C221.806 144.793 221.727 145.03 221.727 145.306Z" fill="#007BFF"/>
<path d="M128.302 145.503C128.263 145.819 127.947 145.937 127.513 145.819C125.698 145.227 122.187 151.027 122.226 154.538C122.226 156.984 123.489 159.904 124.909 160.811C125.738 161.363 125.896 161.363 126.803 160.693C127.553 160.14 127.71 159.746 127.553 158.799C127.237 156.984 125.856 154.262 125.225 154.262C124.475 154.262 124.515 154.538 125.501 155.879C125.935 156.511 126.408 157.655 126.527 158.404C126.724 159.588 126.645 159.785 125.935 159.785C124.791 159.785 123.686 157.3 123.686 154.656C123.686 152.684 123.883 152.25 125.698 149.646L127.671 146.805L128.184 149.843C128.46 151.5 128.855 153.867 129.052 155.051C129.486 157.812 131.38 163.336 131.892 163.336C132.326 163.336 132.208 162.744 131.064 158.602C129.762 153.986 128.894 149.922 128.618 147.357C128.46 146.055 128.302 145.227 128.302 145.503Z" fill="#007BFF"/>
<path d="M177.539 150.356C172.213 155.366 170.634 157.378 166.926 163.967C163.138 170.792 159.706 180.064 159.824 183.339C159.864 184.404 159.864 184.404 160.258 183.062C161.797 177.578 162.783 174.619 164.164 171.503C166.689 165.782 171.226 157.931 173.554 155.287C176.671 151.776 177.302 151.46 175.842 154.143C174.225 157.181 174.185 159.351 175.803 161.994C176.75 163.533 177.499 164.204 179.511 165.19C182.391 166.65 185.429 167.439 186.021 166.847C186.218 166.61 186.218 166.492 185.903 166.492C185.666 166.492 183.93 165.782 182.115 164.914C179.354 163.612 178.604 163.02 177.539 161.442C176.434 159.785 176.316 159.351 176.473 157.576C176.75 155.051 178.012 152.526 180.892 148.778C182.115 147.2 183.023 145.819 182.904 145.7C182.825 145.621 180.379 147.712 177.539 150.356Z" fill="#007BFF"/>
<path d="M190.953 148.304C190.953 149.606 191.111 150.711 191.308 150.711C192.255 150.711 192.452 147.121 191.545 146.371C191.032 145.937 190.953 146.174 190.953 148.304Z" fill="#007BFF"/>
<path d="M230.012 151.382C230.327 151.816 232.103 154.222 233.878 156.708C238.849 163.454 242.992 172.213 244.688 179.63C245.714 184.167 246.306 185.311 245.99 182.076C245.477 177.066 242.834 169.925 238.889 162.941C237.35 160.18 231.274 151.973 230.13 151.066C229.46 150.553 229.46 150.553 230.012 151.382Z" fill="#007BFF"/>
<path d="M118.359 155.485C118.359 155.8 118.636 156.984 118.951 158.089C119.582 160.14 122.344 163.73 123.33 163.73C124.159 163.73 124.041 163.454 122.699 162.231C122.029 161.639 120.805 159.746 119.937 158.01C119.07 156.274 118.359 155.13 118.359 155.485Z" fill="#007BFF"/>
<path d="M214.744 161.6C212.85 162.626 210.838 163.77 210.285 164.125C206.735 166.571 202.316 167.873 199.357 167.281C197.226 166.887 192.808 164.914 188.902 162.665C186.14 161.048 183.733 160.732 183.536 161.955C183.418 162.823 183.694 162.981 191.624 166.453C199.949 170.122 202.671 170.043 210.641 166.019C220.07 161.284 220.149 161.206 220.149 160.495C220.149 159.312 218.492 159.667 214.744 161.6Z" fill="#007BFF"/>
<path d="M138.914 167.873C138.875 168.11 140.492 171.108 142.465 174.58C144.438 178.052 147.042 182.826 148.225 185.232C150.711 190.164 153.117 194.228 153.394 193.912C153.867 193.439 147.673 181.721 141.992 172.41C138.954 167.439 138.914 167.399 138.914 167.873Z" fill="#007BFF"/>
<path d="M258.497 173.081C257.195 175.133 254.275 182.668 252.934 187.442C251.711 191.861 251.987 192.137 253.289 187.797C254.788 182.826 257.787 175.093 259.049 172.963C260.43 170.635 259.996 170.753 258.497 173.081Z" fill="#007BFF"/>
<path d="M211.193 181.09C210.325 181.287 208.786 181.839 207.878 182.313C206.221 183.141 205.906 183.141 201.014 182.826C194.149 182.352 190.164 182.51 187.6 183.26C185.311 183.891 175.685 190.125 173.318 192.452C171.976 193.754 171.582 194.741 172.528 194.385C172.844 194.267 174.462 194.346 176.198 194.543C184.641 195.569 190.953 196.161 196.95 196.555C202.671 196.95 204.051 196.91 207.563 196.358C209.772 196.003 212.494 195.451 213.599 195.135C214.704 194.819 217.032 194.346 218.768 194.109C220.503 193.873 222.831 193.399 223.896 193.083C225.041 192.768 227.368 192.571 229.42 192.61C231.393 192.61 233.444 192.452 234.075 192.216C235.377 191.663 235.496 190.361 234.273 189.73C233.76 189.454 232.3 188.428 230.998 187.402C225.277 182.944 216.203 180.025 211.193 181.09ZM221.726 183.733C226.737 184.917 227.881 185.508 231.195 188.586L233.76 190.953H231.984C228 190.992 219.201 192.255 212.06 193.833C203.973 195.648 202.71 195.806 200.225 195.332C198.962 195.096 196.674 194.898 195.135 194.898C193.636 194.898 190.953 194.701 189.217 194.504C185.39 193.991 175.961 192.886 175.29 192.847C174.58 192.768 174.975 192.334 177.46 190.48C180.656 188.033 184.167 185.942 186.495 185.035C188.428 184.285 193.044 183.575 194.701 183.773C195.135 183.812 197.936 183.97 200.895 184.088C204.919 184.285 206.616 184.246 207.523 183.851C211.626 182.155 214.901 182.116 221.726 183.733Z" fill="#007BFF"/>
<path d="M244.61 192.413C243.86 194.03 242.558 196.674 241.769 198.291C240.941 199.909 240.428 201.211 240.625 201.211C241.296 201.211 243.347 197.7 244.215 195.096C244.728 193.557 245.399 191.939 245.675 191.466C245.991 190.993 246.188 190.361 246.109 190.046C246.03 189.73 245.36 190.795 244.61 192.413Z" fill="#007BFF"/>
<path d="M228.039 195.569C225.751 197.621 221.174 202.789 221.45 203.026C221.569 203.184 230.801 194.149 230.801 193.833C230.801 193.36 229.814 193.952 228.039 195.569Z" fill="#007BFF"/>
<path d="M163.573 196.358C163.257 197.305 163.691 198.41 164.677 199.238C165.388 199.791 165.545 199.238 164.875 198.567C164.638 198.331 164.322 197.542 164.165 196.792C163.888 195.609 163.849 195.569 163.573 196.358Z" fill="#007BFF"/>
<path d="M176.355 196.003C176.355 196.358 184.483 202.316 186.14 203.184C187.955 204.091 187.402 203.263 185.39 201.961C184.246 201.25 182.116 199.712 180.656 198.607C177.697 196.279 176.355 195.49 176.355 196.003Z" fill="#007BFF"/>
<path d="M215.098 206.537C208.431 208.234 200.501 208.589 193.478 207.523C187.56 206.616 190.282 208.234 196.437 209.299C203.183 210.443 211.587 209.693 217.229 207.405C218.491 206.932 219.557 206.3 219.675 206.024C219.872 205.393 219.399 205.432 215.098 206.537Z" fill="#007BFF"/>
<path d="M198.685 219.28C196.792 219.675 195.49 220.188 195.371 220.503C195.214 220.977 195.726 221.016 198.488 220.78C200.303 220.622 205.195 220.346 209.298 220.148C213.441 219.991 216.873 219.793 216.992 219.793C217.071 219.754 216.913 219.517 216.676 219.241C215.848 218.452 202.552 218.452 198.685 219.28Z" fill="#007BFF"/>
<path d="M275.738 129.209C273.252 131.063 269.465 137.691 270.964 137.691C271.122 137.691 271.871 136.666 272.621 135.403C273.962 133.154 277.395 129.406 278.065 129.406C278.854 129.406 279.052 131.458 279.131 139.703C279.17 144.398 279.328 148.462 279.486 148.699C279.92 149.369 278.618 153.157 276.684 156.984C274.988 160.298 274.751 161.6 276.211 159.785C277.316 158.365 278.736 155.564 279.525 153.078C280.156 151.224 280.235 149.409 280.275 140.848C280.314 131.931 280.235 130.629 279.604 129.485C278.736 127.907 277.631 127.828 275.738 129.209Z" fill="#007BFF"/>
<path d="M271.556 138.678C271.438 139.033 271.438 139.388 271.516 139.506C271.635 139.625 271.832 139.348 271.95 138.875C272.187 137.968 271.911 137.81 271.556 138.678Z" fill="#007BFF"/>
<path d="M274.199 139.664C274.87 140.532 275.501 141.242 275.58 141.242C275.659 141.242 275.265 140.532 274.712 139.664C274.121 138.796 273.489 138.086 273.292 138.086C273.095 138.086 273.529 138.796 274.199 139.664Z" fill="#007BFF"/>
<path d="M270.965 140.729C270.846 141.203 270.925 142.426 271.122 143.491C271.438 144.832 271.399 146.055 271.083 147.752C270.61 150.198 269.86 157.142 269.899 159.193C269.899 161.718 270.61 159.075 271.241 154.064C271.596 151.263 272.148 148.344 272.464 147.594C272.78 146.845 272.937 145.858 272.819 145.424C272.306 143.609 274.2 146.568 274.792 148.502C275.502 150.869 275.541 152.171 274.831 153.433L274.318 154.38L273.845 153.078C273.608 152.368 273.411 151.342 273.411 150.869C273.411 149.922 272.858 149.606 272.464 150.277C272.346 150.474 272.503 151.539 272.858 152.644C273.49 154.775 273.332 155.643 272.385 155.287C271.635 155.011 271.675 155.998 272.424 156.629C273.292 157.339 275.186 155.643 275.936 153.512C277.277 149.804 276.409 146.332 273.411 143.373C272.346 142.307 271.399 141.084 271.359 140.65C271.241 139.901 271.201 139.901 270.965 140.729Z" fill="#007BFF"/>
<path d="M219.518 252.539C219.321 252.855 218.098 255.143 216.835 257.668C213.797 263.744 211.746 266.309 208.629 267.847C204.644 269.859 204.447 269.78 199.2 264.336C196.675 261.732 194.465 259.602 194.268 259.602C194.11 259.602 194.505 260.193 195.215 260.864C195.886 261.574 197.385 263.389 198.529 264.928C200.817 267.887 203.855 270.254 205.433 270.254C207.209 270.254 211.351 267.966 212.771 266.19C215.178 263.271 220.386 253.368 220.031 252.382C219.991 252.184 219.755 252.263 219.518 252.539Z" fill="#007BFF"/>
<path d="M191.229 257.826C191.347 258.181 192.018 258.734 192.689 259.089L193.912 259.72L192.57 258.457C191.111 257.076 190.874 256.958 191.229 257.826Z" fill="#007BFF"/>
<path d="M223.147 296.569C222.555 297.832 220.741 301.106 219.123 303.829C216.44 308.405 215.73 310.102 216.519 310.102C216.677 310.102 217.663 308.563 218.689 306.63C221.451 301.54 224.923 294.32 224.568 294.32C224.41 294.32 223.779 295.346 223.147 296.569Z" fill="#007BFF"/>
<path d="M185.824 295.07C185.824 295.267 186.377 297.003 187.047 298.936C188.231 302.25 190.243 306.196 193.163 310.851C193.873 312.035 194.543 313.139 194.622 313.376C194.662 313.573 194.938 313.692 195.214 313.613C195.53 313.494 195.372 312.982 194.741 312.035C193.32 309.944 187.56 298.344 187.008 296.372C186.534 294.912 185.824 294.084 185.824 295.07Z" fill="#007BFF"/>
<path d="M153.67 290.849C152.802 291.283 151.658 292.032 151.145 292.506C149.843 293.689 147.871 297.753 148.028 298.976C148.107 299.844 148.305 299.647 149.015 297.674C150.435 293.926 151.224 292.9 153.868 291.559C155.169 290.888 156.235 290.296 156.235 290.178C156.235 289.783 155.209 290.06 153.67 290.849Z" fill="#007BFF"/>
<path d="M163.533 308.524C163.652 308.721 164.007 308.918 164.322 308.918C165.348 308.918 167.597 312.074 168.465 314.836C169.294 317.44 169.294 317.637 168.702 318.584C167.992 319.649 166.611 319.886 165.23 319.136C164.796 318.9 163.928 317.598 163.297 316.296C162.705 314.954 162.192 314.205 162.192 314.639C162.153 315.98 164.244 319.294 165.506 319.965C166.177 320.281 166.808 320.715 166.966 320.951C167.518 321.74 169.412 320.241 169.728 318.781C170.28 316.099 167.834 310.259 165.585 308.918C164.244 308.09 163.139 307.892 163.533 308.524Z" fill="#007BFF"/>
<path d="M164.599 312.705C164.954 313.1 165.545 314.165 165.9 315.033C166.295 315.901 166.65 316.375 166.768 316.138C167.005 315.467 165.269 312.39 164.52 312.153C164.046 311.995 164.046 312.074 164.599 312.705Z" fill="#007BFF"/>
<path d="M158.444 318.347C158.838 319.097 160.219 320.714 161.521 321.898C162.784 323.121 165.822 326.04 168.228 328.368C170.635 330.735 172.963 332.866 173.397 333.103C174.62 333.734 166.137 324.778 164.677 323.871C163.928 323.437 162.074 321.701 160.535 320.044C158.523 317.913 157.931 317.4 158.444 318.347Z" fill="#007BFF"/>
<path d="M151.934 325.331C151.224 326.317 150.711 327.185 150.829 327.303C151.026 327.5 152.249 325.922 153.038 324.384C153.788 323.003 153.315 323.358 151.934 325.331Z" fill="#007BFF"/>
<path d="M245.99 301.146C245.319 301.461 244.57 301.974 244.294 302.329C243.899 302.803 244.096 302.763 245.28 302.172C246.858 301.382 250.172 301.146 251.79 301.777C252.303 301.974 253.683 303 254.867 304.026C256.958 305.92 256.997 305.92 256.208 304.578C254.867 302.29 252.5 300.87 249.62 300.751C248.16 300.672 246.7 300.83 245.99 301.146Z" fill="#007BFF"/>
<path d="M252.698 326.435C252.343 326.987 252.106 327.658 252.185 327.934C252.303 328.211 252.659 327.855 253.053 327.145C253.882 325.528 253.605 325.015 252.698 326.435Z" fill="#007BFF"/>
<path d="M162.941 330.854C162.941 331.17 163.139 331.327 163.336 331.209C163.573 331.051 163.652 330.775 163.533 330.578C163.178 330.026 162.941 330.144 162.941 330.854Z" fill="#007BFF"/>
<path d="M208.312 370.386C208.312 370.859 209.062 371.412 209.338 371.136C209.417 371.057 209.259 370.741 208.904 370.465C208.549 370.149 208.312 370.149 208.312 370.386Z" fill="#007BFF"/>
<path d="M204.723 372.24C204.367 374.41 206.695 376.777 209.22 376.777C210.364 376.777 213.442 374.647 213.442 373.818C213.442 373.424 213.087 373.582 212.376 374.252C211.43 375.16 210.996 375.239 209.22 375.12C207.09 374.923 205.748 374.134 205.117 372.635C204.959 372.201 204.762 372.004 204.723 372.24Z" fill="#007BFF"/>
</g>
</g>
<defs>
<clipPath id="clip0_512_161">
<rect width="404" height="404" fill="white"/>
</clipPath>
<clipPath id="clip1_512_161">
<rect width="404" height="404" fill="white"/>
</clipPath>
</defs>
</svg>
