<svg width="404" height="404" viewBox="0 0 404 404" fill="none" xmlns="http://www.w3.org/2000/svg">
<rect width="404" height="404" rx="60" fill="#F2F2F2"/>
<g clip-path="url(#clip0_1272_13)">
<path d="M151.001 355C179.153 355 202.002 332.152 202.002 304V252.999H151.001C122.849 252.999 100 275.848 100 304C100 332.152 122.849 355 151.001 355Z" fill="#0ACF83"/>
<path d="M100 202C100 173.848 122.849 150.999 151.001 150.999H202.002V252.999H151.001C122.849 253 100 230.152 100 202Z" fill="#A259FF"/>
<path d="M100 100C100 71.8484 122.849 49 151.001 49H202.002V151H151.001C122.849 151 100 128.152 100 100Z" fill="#F24E1E"/>
<path d="M201.998 49H252.999C281.151 49 304 71.8484 304 100C304 128.152 281.151 151 252.999 151H201.998V49Z" fill="#FF7262"/>
<path d="M304 202C304 230.152 281.151 253 252.999 253C224.847 253 201.998 230.152 201.998 202C201.998 173.848 224.847 150.999 252.999 150.999C281.151 150.999 304 173.848 304 202Z" fill="#1ABCFE"/>
</g>
<defs>
<clipPath id="clip0_1272_13">
<rect width="306" height="306" fill="white" transform="translate(49 49)"/>
</clipPath>
</defs>
</svg>
