<svg width="404" height="404" viewBox="0 0 404 404" fill="none" xmlns="http://www.w3.org/2000/svg">
<rect width="404" height="404" rx="60" fill="#F2F2F2"/>
<rect x="49" y="49" width="306" height="306" rx="153" fill="white"/>
<path d="M284.694 256.689C284.711 260.131 283.998 263.537 282.599 266.683C281.201 269.828 279.15 272.64 276.583 274.933C274.015 277.225 270.99 278.946 267.707 279.981C264.424 281.016 260.959 281.341 257.541 280.935C245.098 279.094 235.981 268.267 236.284 255.693V111.127C235.983 98.5399 245.124 87.7067 257.582 85.8855C260.997 85.4857 264.458 85.8155 267.736 86.8531C271.014 87.8906 274.034 89.6123 276.597 91.9042C279.16 94.1962 281.207 97.0061 282.602 100.148C283.998 103.29 284.711 106.693 284.694 110.131V256.689Z" fill="#F9AB00"/>
<path d="M132.365 232.733C145.733 232.733 156.57 243.57 156.57 256.938C156.57 270.306 145.733 281.143 132.365 281.143C118.997 281.143 108.16 270.306 108.16 256.939C108.16 243.57 118.997 232.733 132.365 232.733V232.733ZM196.053 159.371C182.622 160.107 172.2 171.374 172.513 184.822V249.839C172.513 267.484 180.277 278.196 191.652 280.479C195.179 281.194 198.82 281.115 202.312 280.247C205.805 279.38 209.06 277.746 211.843 275.465C214.625 273.183 216.865 270.31 218.4 267.056C219.934 263.801 220.725 260.245 220.715 256.647V183.701C220.721 180.477 220.084 177.283 218.843 174.307C217.601 171.331 215.78 168.631 213.484 166.367C211.188 164.102 208.465 162.317 205.472 161.116C202.479 159.915 199.277 159.322 196.053 159.372V159.371Z" fill="#E37400"/>
</svg>
