<svg width="404" height="404" viewBox="0 0 404 404" fill="none" xmlns="http://www.w3.org/2000/svg">
<rect width="404" height="404" fill="#C6D6FF"/>
<rect x="99" y="99" width="206" height="206" rx="20" fill="#C6D6FF" stroke="#140152" stroke-width="10"/>
<path d="M161.886 237V167.182H207.295V177.784H174.534V196.739H204.943V207.341H174.534V226.398H207.568V237H161.886ZM245.801 184.636V194.182H215.699V184.636H245.801ZM223.131 172.091H235.472V221.25C235.472 222.909 235.722 224.182 236.222 225.068C236.744 225.932 237.426 226.523 238.267 226.841C239.108 227.159 240.04 227.318 241.062 227.318C241.835 227.318 242.54 227.261 243.176 227.148C243.835 227.034 244.335 226.932 244.676 226.841L246.756 236.489C246.097 236.716 245.153 236.966 243.926 237.239C242.722 237.511 241.244 237.67 239.494 237.716C236.403 237.807 233.619 237.341 231.142 236.318C228.665 235.273 226.699 233.659 225.244 231.477C223.813 229.295 223.108 226.568 223.131 223.295V172.091Z" fill="#140152"/>
<path d="M203.161 144.358C201.558 144.358 200.118 144.051 198.839 143.438C197.57 142.815 196.555 141.963 195.797 140.881C195.038 139.798 194.634 138.562 194.582 137.173H198.418C198.511 138.298 199.01 139.223 199.913 139.947C200.817 140.672 201.899 141.034 203.161 141.034C204.166 141.034 205.057 140.804 205.832 140.344C206.616 139.875 207.23 139.232 207.673 138.413C208.125 137.595 208.351 136.662 208.351 135.614C208.351 134.548 208.121 133.598 207.661 132.763C207.2 131.928 206.565 131.271 205.756 130.794C204.955 130.317 204.034 130.074 202.994 130.065C202.202 130.065 201.405 130.202 200.604 130.474C199.803 130.747 199.155 131.105 198.661 131.548L195.043 131.011L196.513 117.818H210.908V121.206H199.798L198.967 128.531H199.121C199.632 128.037 200.31 127.624 201.153 127.291C202.006 126.959 202.918 126.793 203.889 126.793C205.483 126.793 206.902 127.172 208.146 127.93C209.399 128.689 210.384 129.724 211.099 131.037C211.824 132.341 212.182 133.841 212.173 135.537C212.182 137.233 211.798 138.746 211.023 140.075C210.256 141.405 209.19 142.453 207.827 143.22C206.472 143.979 204.916 144.358 203.161 144.358Z" fill="#140152"/>
<path d="M141.033 285.396C139.098 285.396 137.432 284.983 136.034 284.156C134.645 283.321 133.571 282.149 132.812 280.641C132.062 279.124 131.688 277.347 131.688 275.31C131.688 273.298 132.062 271.526 132.812 269.991C133.571 268.457 134.628 267.26 135.983 266.399C137.347 265.538 138.94 265.108 140.764 265.108C141.872 265.108 142.946 265.291 143.986 265.658C145.026 266.024 145.959 266.599 146.786 267.384C147.612 268.168 148.264 269.186 148.741 270.439C149.219 271.683 149.457 273.196 149.457 274.977V276.332H133.848V273.469H145.712C145.712 272.463 145.507 271.572 145.098 270.797C144.689 270.013 144.114 269.395 143.372 268.943C142.639 268.491 141.778 268.266 140.79 268.266C139.716 268.266 138.778 268.53 137.977 269.058C137.185 269.578 136.571 270.26 136.136 271.104C135.71 271.939 135.497 272.847 135.497 273.827V276.064C135.497 277.376 135.727 278.493 136.188 279.413C136.656 280.334 137.308 281.037 138.143 281.523C138.979 282 139.955 282.239 141.071 282.239C141.795 282.239 142.456 282.136 143.053 281.932C143.649 281.719 144.165 281.403 144.599 280.986C145.034 280.568 145.366 280.053 145.597 279.439L149.214 280.091C148.925 281.156 148.405 282.089 147.655 282.891C146.913 283.683 145.98 284.301 144.855 284.744C143.739 285.179 142.464 285.396 141.033 285.396ZM157.521 258.818V285H153.699V258.818H157.521ZM171.126 285.396C169.192 285.396 167.526 284.983 166.128 284.156C164.739 283.321 163.665 282.149 162.906 280.641C162.156 279.124 161.781 277.347 161.781 275.31C161.781 273.298 162.156 271.526 162.906 269.991C163.665 268.457 164.722 267.26 166.077 266.399C167.44 265.538 169.034 265.108 170.858 265.108C171.966 265.108 173.04 265.291 174.08 265.658C175.119 266.024 176.053 266.599 176.879 267.384C177.706 268.168 178.358 269.186 178.835 270.439C179.313 271.683 179.551 273.196 179.551 274.977V276.332H163.942V273.469H175.805C175.805 272.463 175.601 271.572 175.192 270.797C174.783 270.013 174.207 269.395 173.466 268.943C172.733 268.491 171.872 268.266 170.884 268.266C169.81 268.266 168.872 268.53 168.071 269.058C167.278 269.578 166.665 270.26 166.23 271.104C165.804 271.939 165.591 272.847 165.591 273.827V276.064C165.591 277.376 165.821 278.493 166.281 279.413C166.75 280.334 167.402 281.037 168.237 281.523C169.072 282 170.048 282.239 171.165 282.239C171.889 282.239 172.55 282.136 173.146 281.932C173.743 281.719 174.259 281.403 174.693 280.986C175.128 280.568 175.46 280.053 175.69 279.439L179.308 280.091C179.018 281.156 178.499 282.089 177.749 282.891C177.007 283.683 176.074 284.301 174.949 284.744C173.832 285.179 172.558 285.396 171.126 285.396ZM183.792 285V265.364H187.461V268.56H187.704C188.113 267.477 188.782 266.634 189.711 266.028C190.64 265.415 191.752 265.108 193.048 265.108C194.36 265.108 195.46 265.415 196.346 266.028C197.241 266.642 197.902 267.486 198.328 268.56H198.532C199.001 267.511 199.747 266.676 200.77 266.054C201.792 265.423 203.011 265.108 204.426 265.108C206.207 265.108 207.66 265.666 208.785 266.783C209.919 267.899 210.485 269.582 210.485 271.832V285H206.663V272.19C206.663 270.861 206.301 269.898 205.576 269.301C204.852 268.705 203.987 268.406 202.981 268.406C201.737 268.406 200.77 268.79 200.079 269.557C199.389 270.315 199.044 271.291 199.044 272.484V285H195.234V271.947C195.234 270.882 194.902 270.026 194.237 269.378C193.572 268.73 192.707 268.406 191.642 268.406C190.917 268.406 190.248 268.598 189.635 268.982C189.029 269.357 188.539 269.881 188.164 270.554C187.798 271.227 187.615 272.007 187.615 272.893V285H183.792ZM224.072 285.396C222.137 285.396 220.471 284.983 219.073 284.156C217.684 283.321 216.61 282.149 215.852 280.641C215.102 279.124 214.727 277.347 214.727 275.31C214.727 273.298 215.102 271.526 215.852 269.991C216.61 268.457 217.667 267.26 219.022 266.399C220.386 265.538 221.979 265.108 223.803 265.108C224.911 265.108 225.985 265.291 227.025 265.658C228.065 266.024 228.998 266.599 229.825 267.384C230.651 268.168 231.303 269.186 231.781 270.439C232.258 271.683 232.496 273.196 232.496 274.977V276.332H216.887V273.469H228.751C228.751 272.463 228.546 271.572 228.137 270.797C227.728 270.013 227.153 269.395 226.411 268.943C225.678 268.491 224.817 268.266 223.829 268.266C222.755 268.266 221.817 268.53 221.016 269.058C220.224 269.578 219.61 270.26 219.175 271.104C218.749 271.939 218.536 272.847 218.536 273.827V276.064C218.536 277.376 218.766 278.493 219.227 279.413C219.695 280.334 220.347 281.037 221.183 281.523C222.018 282 222.994 282.239 224.11 282.239C224.835 282.239 225.495 282.136 226.092 281.932C226.688 281.719 227.204 281.403 227.638 280.986C228.073 280.568 228.406 280.053 228.636 279.439L232.254 280.091C231.964 281.156 231.444 282.089 230.694 282.891C229.952 283.683 229.019 284.301 227.894 284.744C226.778 285.179 225.504 285.396 224.072 285.396ZM240.56 273.341V285H236.738V265.364H240.407V268.56H240.65C241.101 267.52 241.809 266.685 242.772 266.054C243.743 265.423 244.966 265.108 246.441 265.108C247.779 265.108 248.951 265.389 249.956 265.952C250.962 266.506 251.742 267.332 252.296 268.432C252.85 269.531 253.127 270.891 253.127 272.51V285H249.304V272.97C249.304 271.547 248.934 270.435 248.192 269.634C247.451 268.824 246.432 268.419 245.137 268.419C244.25 268.419 243.462 268.611 242.772 268.994C242.09 269.378 241.549 269.94 241.148 270.682C240.756 271.415 240.56 272.301 240.56 273.341ZM255.616 262.219V258.818H275.879V262.219H267.71V285H263.773V262.219H255.616Z" fill="#140152"/>
</svg>
