<svg width="404" height="404" viewBox="0 0 404 404" fill="none" xmlns="http://www.w3.org/2000/svg">
<rect width="404" height="404" rx="60" fill="#F2F2F2"/>
<g clip-path="url(#clip0_1272_183)">
<path d="M205.5 49H198.5C115.933 49 49 115.933 49 198.5V205.5C49 288.067 115.933 355 198.5 355H205.5C288.067 355 355 288.067 355 205.5V198.5C355 115.933 288.067 49 205.5 49Z" fill="#FFD02F"/>
<path d="M239.933 114.28H214.693L237.101 149.418L189.73 114.28H164.49L186.897 160.321L139.52 114.28H114.28L136.318 173.722L114.28 289.72H139.52L186.897 165.342L164.49 289.72H189.73L237.101 154.439L214.693 289.72H239.933L287.68 141.119L239.933 114.28Z" fill="#050038"/>
</g>
<defs>
<clipPath id="clip0_1272_183">
<rect x="49" y="49" width="306" height="306" rx="149.5" fill="white"/>
</clipPath>
</defs>
</svg>
