<svg width="404" height="404" viewBox="0 0 404 404" fill="none" xmlns="http://www.w3.org/2000/svg">
<rect width="404" height="404" rx="60" fill="#F2F2F2"/>
<path d="M214.181 53.1873C227.553 57.009 236.786 69.2629 236.804 83.2175M214.181 53.1873L214.179 53.1852C211.406 52.3869 208.535 51.9879 205.65 52.0003C200.224 52.0141 194.895 53.4287 190.176 56.1072L99.182 108.203C94.5657 110.849 90.7304 114.667 88.0644 119.272C85.3984 123.877 83.9963 129.104 84.0001 134.425V245.944C83.9697 257.998 96.808 265.69 107.363 259.945L132.009 246.587C135.393 244.716 138.212 241.97 140.172 238.637C142.132 235.303 143.161 231.505 143.151 227.638V154.26C143.151 149.838 144.508 145.523 147.037 141.896C149.567 138.27 153.148 135.506 157.297 133.978L236.804 105.137V83.2175M214.181 53.1873C227.559 57.005 236.788 69.2569 236.804 83.2175M214.181 53.1873L298.709 77.228C311.658 80.9244 320.592 92.8002 320.586 106.314V296.899C320.568 310.376 311.676 322.222 298.771 325.954L214.516 350.034C227.735 346.268 236.842 334.136 236.804 320.345V83.2175M236.804 285.717H142.811C126.707 285.891 121.069 307.246 134.975 315.401L190.963 347.263C195.573 349.893 200.789 351.275 206.096 351.271C208.951 351.27 211.79 350.853 214.525 350.034C227.739 346.266 236.842 334.136 236.804 320.349V285.717Z" stroke="#F25022" stroke-width="24.2652"/>
</svg>
