<svg width="404" height="404" viewBox="0 0 404 404" fill="none" xmlns="http://www.w3.org/2000/svg">
<rect width="404" height="404" rx="60" fill="#F2F2F2"/>
<g clip-path="url(#clip0_1274_69)">
<path d="M122.269 264.564V128.551C122.269 127.627 122.665 127.099 123.59 127.099C125.835 127.099 127.947 127.099 130.985 126.967C134.154 126.835 137.455 126.835 141.021 126.703C144.586 126.57 148.415 126.571 152.509 126.438C156.603 126.306 160.564 126.306 164.526 126.306C175.354 126.306 184.333 127.627 191.728 130.4C198.331 132.645 204.405 136.342 209.423 141.228C213.649 145.454 216.95 150.604 219.063 156.282C221.044 161.828 222.1 167.506 222.1 173.449C222.1 184.805 219.459 194.181 214.177 201.576C208.895 208.971 201.5 214.517 192.917 217.686C183.937 220.987 174.033 222.176 163.205 222.176C160.036 222.176 157.923 222.176 156.603 222.044C155.282 221.912 153.433 221.912 150.924 221.912V264.3C151.056 265.224 150.396 266.017 149.472 266.149H148.944H123.854C122.797 266.149 122.269 265.62 122.269 264.432V264.564ZM151.056 152.717V197.086C152.905 197.218 154.622 197.35 156.206 197.35H163.205C168.355 197.35 173.505 196.558 178.391 194.973C182.617 193.785 186.314 191.276 189.219 187.974C191.992 184.673 193.313 180.183 193.313 174.373C193.445 170.279 192.388 166.186 190.276 162.621C188.031 159.187 184.862 156.546 181.032 155.094C176.146 153.113 170.864 152.32 165.45 152.453C162.017 152.453 158.98 152.453 156.471 152.585C153.83 152.453 151.981 152.585 151.056 152.717V152.717Z" fill="#9999FF"/>
<path d="M241.115 160.508H264.224C265.545 160.508 266.601 161.432 266.997 162.62C267.394 163.677 267.658 164.733 267.79 165.922C268.054 167.242 268.318 168.695 268.45 170.015C268.582 171.468 268.714 173.053 268.714 174.769C272.676 170.147 277.429 166.318 282.844 163.413C288.918 159.979 295.917 158.263 302.915 158.263C303.84 158.131 304.632 158.791 304.764 159.715V160.244V185.994C304.764 187.05 304.104 187.446 302.651 187.446C297.897 187.314 293.012 187.71 288.39 188.767C284.56 189.559 280.863 190.747 277.297 192.332C274.788 193.52 272.412 195.105 270.563 197.218V264.564C270.563 265.885 270.035 266.413 268.846 266.413H242.832C241.776 266.545 240.851 265.885 240.719 264.828V264.3V191.144C240.719 187.974 240.719 184.673 240.587 181.24C240.455 177.806 240.455 174.373 240.323 170.94C240.323 167.903 240.059 164.997 239.795 161.96C239.663 161.3 240.059 160.64 240.719 160.508C240.719 160.376 240.983 160.376 241.115 160.508V160.508Z" fill="#9999FF"/>
</g>
<defs>
<clipPath id="clip0_1274_69">
<rect x="47" y="48" width="309" height="309" rx="154.5" fill="white"/>
</clipPath>
</defs>
</svg>
