<svg width="404" height="404" viewBox="0 0 404 404" fill="none" xmlns="http://www.w3.org/2000/svg">
<rect width="404" height="404" rx="60" fill="#F2F2F2"/>
<g clip-path="url(#clip0_1272_197)">
<path d="M120.454 264.528V126.829C120.454 125.892 120.845 125.357 121.759 125.357C123.977 125.357 126.064 125.357 129.065 125.223C132.196 125.09 135.458 125.09 138.981 124.956C142.504 124.822 146.287 124.822 150.332 124.688C154.377 124.554 158.291 124.554 162.205 124.554C172.904 124.554 181.776 125.892 189.082 128.703C195.606 130.978 201.608 134.724 206.566 139.676C210.741 143.958 214.002 149.177 216.09 154.931C218.047 160.551 219.091 166.305 219.091 172.327C219.091 183.835 216.481 193.337 211.263 200.83C206.044 208.324 198.737 213.944 190.256 217.156C181.384 220.502 171.599 221.706 160.9 221.706C157.769 221.706 155.681 221.706 154.377 221.572C153.072 221.438 151.245 221.438 148.766 221.438V264.394C148.897 265.33 148.244 266.133 147.331 266.267C147.201 266.267 147.07 266.267 146.809 266.267H122.02C120.976 266.267 120.454 265.732 120.454 264.528ZM148.897 151.184V196.147C150.723 196.281 152.42 196.414 153.985 196.414H160.9C165.989 196.414 171.077 195.611 175.905 194.006C180.08 192.801 183.733 190.259 186.603 186.913C189.343 183.568 190.648 179.018 190.648 173.13C190.778 168.982 189.735 164.833 187.647 161.22C185.429 157.741 182.298 155.065 178.514 153.593C173.687 151.585 168.468 150.783 163.118 150.916C159.726 150.916 156.725 150.916 154.246 151.05C151.637 150.916 149.81 151.05 148.897 151.184Z" fill="#31A8FF"/>
<path d="M300.505 187.985C296.591 185.844 292.416 184.372 287.98 183.435C283.152 182.364 278.325 181.695 273.367 181.695C270.757 181.561 268.017 181.963 265.538 182.632C263.842 183.033 262.407 183.97 261.494 185.308C260.842 186.379 260.45 187.717 260.45 188.921C260.45 190.126 260.972 191.33 261.755 192.401C262.929 193.873 264.495 195.077 266.191 196.014C269.192 197.62 272.323 199.092 275.454 200.43C282.5 202.838 289.284 206.184 295.547 210.198C299.853 213.009 303.375 216.755 305.854 221.305C307.942 225.587 308.986 230.271 308.855 235.089C308.986 241.378 307.159 247.667 303.767 252.886C300.114 258.239 295.025 262.387 289.154 264.796C282.761 267.606 274.932 269.078 265.538 269.078C259.537 269.078 253.666 268.543 247.794 267.339C243.228 266.536 238.661 265.064 234.486 263.056C233.573 262.521 232.92 261.584 233.051 260.514V237.23C233.051 236.828 233.181 236.293 233.573 236.025C233.964 235.758 234.356 235.891 234.747 236.159C239.835 239.237 245.185 241.378 250.926 242.716C255.884 244.054 261.102 244.723 266.321 244.723C271.279 244.723 274.802 244.054 277.151 242.85C279.238 241.913 280.673 239.638 280.673 237.23C280.673 235.356 279.629 233.616 277.542 231.877C275.454 230.137 271.149 228.13 264.756 225.587C258.102 223.179 251.969 219.967 246.229 215.953C242.184 213.009 238.792 209.128 236.313 204.578C234.225 200.296 233.181 195.612 233.312 190.929C233.312 185.174 234.878 179.688 237.748 174.737C241.01 169.384 245.837 165.102 251.447 162.426C257.58 159.214 265.278 157.742 274.541 157.742C279.89 157.742 285.37 158.143 290.72 158.946C294.634 159.482 298.418 160.552 301.94 162.024C302.462 162.158 302.984 162.693 303.245 163.228C303.375 163.764 303.506 164.299 303.506 164.834V186.646C303.506 187.182 303.245 187.717 302.854 187.985C301.679 188.252 301.027 188.252 300.505 187.985Z" fill="#31A8FF"/>
</g>
<defs>
<clipPath id="clip0_1272_197">
<rect x="50" y="49" width="305" height="305" rx="152.5" fill="white"/>
</clipPath>
</defs>
</svg>
