<svg width="404" height="404" viewBox="0 0 404 404" fill="none" xmlns="http://www.w3.org/2000/svg">
<rect width="404" height="404" rx="60" fill="#F2F2F2"/>
<rect x="51" y="51" width="302" height="302" rx="151" fill="white"/>
<path d="M144.508 227.055C144.508 238.684 135.309 248.083 123.927 248.083C112.546 248.083 103.347 238.684 103.347 227.055C103.347 215.426 112.546 206.027 123.927 206.027H144.508V227.055ZM154.799 227.055C154.799 215.426 163.997 206.027 175.379 206.027C186.761 206.027 195.96 215.426 195.96 227.055V279.625C195.96 291.254 186.761 300.653 175.379 300.653C163.997 300.653 154.799 291.254 154.799 279.625V227.055Z" fill="#E01E5A"/>
<path d="M175.414 144.439C164.051 144.439 154.868 135.255 154.868 123.893C154.868 112.53 164.051 103.347 175.414 103.347C186.777 103.347 195.96 112.53 195.96 123.893V144.439H175.414ZM175.414 154.868C186.777 154.868 195.96 164.051 195.96 175.414C195.96 186.777 186.777 195.96 175.414 195.96H123.893C112.53 195.96 103.347 186.777 103.347 175.414C103.347 164.051 112.53 154.868 123.893 154.868H175.414Z" fill="#36C5F0"/>
<path d="M259.492 175.414C259.492 164.051 268.691 154.868 280.073 154.868C291.454 154.868 300.653 164.051 300.653 175.414C300.653 186.777 291.454 195.96 280.073 195.96H259.492V175.414ZM249.202 175.414C249.202 186.777 240.003 195.96 228.621 195.96C217.239 195.96 208.04 186.777 208.04 175.414V123.893C208.04 112.53 217.239 103.347 228.621 103.347C240.003 103.347 249.202 112.53 249.202 123.893V175.414V175.414Z" fill="#2EB67D"/>
<path d="M228.586 258.597C239.949 258.597 249.132 267.996 249.132 279.625C249.132 291.254 239.949 300.653 228.586 300.653C217.224 300.653 208.04 291.254 208.04 279.625V258.597H228.586ZM228.586 248.083C217.224 248.083 208.04 238.684 208.04 227.055C208.04 215.426 217.224 206.027 228.586 206.027H280.107C291.47 206.027 300.653 215.426 300.653 227.055C300.653 238.684 291.47 248.083 280.107 248.083H228.586Z" fill="#ECB22E"/>
</svg>
